<?xml version="1.0" encoding="UTF-8" standalone="no"?>
<!-- Created with Inkscape (http://www.inkscape.org/) -->

<svg
   xmlns:dc="http://purl.org/dc/elements/1.1/"
   xmlns:cc="http://creativecommons.org/ns#"
   xmlns:rdf="http://www.w3.org/1999/02/22-rdf-syntax-ns#"
   xmlns:svg="http://www.w3.org/2000/svg"
   xmlns="http://www.w3.org/2000/svg"
   xmlns:sodipodi="http://sodipodi.sourceforge.net/DTD/sodipodi-0.dtd"
   xmlns:inkscape="http://www.inkscape.org/namespaces/inkscape"
   id="svg2"
   version="1.1"
   inkscape:version="0.91 r13725"
   xml:space="preserve"
   width="287.5"
   height="180"
   viewBox="0 0 287.5 180"
   sodipodi:docname="plot_energies_vs_fuctionals.svg"><metadata
     id="metadata8"><rdf:RDF><cc:Work
         rdf:about=""><dc:format>image/svg+xml</dc:format><dc:type
           rdf:resource="http://purl.org/dc/dcmitype/StillImage" /></cc:Work></rdf:RDF></metadata><defs
     id="defs6" /><sodipodi:namedview
     pagecolor="#ffffff"
     bordercolor="#666666"
     borderopacity="1"
     objecttolerance="10"
     gridtolerance="10"
     guidetolerance="10"
     inkscape:pageopacity="0"
     inkscape:pageshadow="2"
     inkscape:window-width="2115"
     inkscape:window-height="1377"
     id="namedview4"
     showgrid="false"
     inkscape:zoom="6.532118"
     inkscape:cx="126.48949"
     inkscape:cy="86.490987"
     inkscape:window-x="0"
     inkscape:window-y="0"
     inkscape:window-maximized="0"
     inkscape:current-layer="g10"
     showguides="false" /><g
     id="g10"
     inkscape:groupmode="layer"
     inkscape:label="plot_energies_vs_fuctionals"
     transform="matrix(1.25,0,0,-1.25,0,180)"><rect
       style="opacity:0.36800005;fill:#808000;fill-opacity:1;fill-rule:nonzero;stroke:none;stroke-width:1.29999995;stroke-linecap:round;stroke-linejoin:round;stroke-miterlimit:4;stroke-dasharray:5.2, 1.3;stroke-dashoffset:0;stroke-opacity:0"
       id="rect4241"
       width="174.27733"
       height="62.828003"
       x="25.5966"
       y="-104.83582"
       transform="scale(1,-1)" /><g
       id="g12"
       transform="scale(0.1,0.1)"><path
         d="m 258,279 15.5,0 m -15.5,30.5 15.5,0 M 258,340 l 31.5,0"
         style="fill:none;stroke:#000000;stroke-width:5;stroke-linecap:butt;stroke-linejoin:miter;stroke-miterlimit:3.79999995;stroke-dasharray:none;stroke-opacity:1"
         id="path14"
         inkscape:connector-curvature="0"
         sodipodi:nodetypes="cccccc" /><g
         id="g16"
         transform="scale(10,10)"><text
           transform="matrix(1,0,0,-1,13.8602,32)"
           style="font-variant:normal;font-weight:normal;font-size:6px;font-family:Helvetica;-inkscape-font-specification:Helvetica;writing-mode:lr-tb;fill:#000000;fill-opacity:1;fill-rule:nonzero;stroke:none"
           id="text18"><tspan
             x="0 3.336 5.0040002"
             y="0"
             sodipodi:role="line"
             id="tspan20">1.3</tspan></text>
</g><path
         d="m 258,371 15.5,0 m -15.5,30.5 15.5,0 M 258,432 l 15.5,0 m -15.5,30.5 15.5,0 m -15.5,31 31.5,0"
         style="fill:none;stroke:#000000;stroke-width:5;stroke-linecap:butt;stroke-linejoin:miter;stroke-miterlimit:3.79999995;stroke-dasharray:none;stroke-opacity:1"
         id="path22"
         inkscape:connector-curvature="0"
         sodipodi:nodetypes="cccccccccc" /><g
         id="g24"
         transform="scale(10,10)"><text
           transform="matrix(1,0,0,-1,13.8602,47.35)"
           style="font-variant:normal;font-weight:normal;font-size:6px;font-family:Helvetica;-inkscape-font-specification:Helvetica;writing-mode:lr-tb;fill:#000000;fill-opacity:1;fill-rule:nonzero;stroke:none"
           id="text26"><tspan
             x="0 3.336 5.0040002"
             y="0"
             sodipodi:role="line"
             id="tspan28">1.4</tspan></text>
</g><path
         d="m 258,524 15.5,0 m -15.5,30.5 15.5,0 m -15.5,31 15.5,0 M 258,616 l 15.5,0 m -15.5,30.5 31.5,0"
         style="fill:none;stroke:#000000;stroke-width:5;stroke-linecap:butt;stroke-linejoin:miter;stroke-miterlimit:3.79999995;stroke-dasharray:none;stroke-opacity:1"
         id="path30"
         inkscape:connector-curvature="0"
         sodipodi:nodetypes="cccccccccc" /><g
         id="g32"
         transform="scale(10,10)"><text
           transform="matrix(1,0,0,-1,13.8602,62.65)"
           style="font-variant:normal;font-weight:normal;font-size:6px;font-family:Helvetica;-inkscape-font-specification:Helvetica;writing-mode:lr-tb;fill:#000000;fill-opacity:1;fill-rule:nonzero;stroke:none"
           id="text34"><tspan
             x="0 3.336 5.0040002"
             y="0"
             sodipodi:role="line"
             id="tspan36">1.5</tspan></text>
</g><path
         d="m 258,677 15.5,0 m -15.5,31 15.5,0 m -15.5,30.5 15.5,0 M 258,769 l 15.5,0 m -15.5,31 31.5,0"
         style="fill:none;stroke:#000000;stroke-width:5;stroke-linecap:butt;stroke-linejoin:miter;stroke-miterlimit:3.79999995;stroke-dasharray:none;stroke-opacity:1"
         id="path38"
         inkscape:connector-curvature="0"
         sodipodi:nodetypes="cccccccccc" /><g
         id="g40"
         transform="scale(10,10)"><text
           transform="matrix(1,0,0,-1,13.8602,78)"
           style="font-variant:normal;font-weight:normal;font-size:6px;font-family:Helvetica;-inkscape-font-specification:Helvetica;writing-mode:lr-tb;fill:#000000;fill-opacity:1;fill-rule:nonzero;stroke:none"
           id="text42"><tspan
             x="0 3.336 5.0040002"
             y="0"
             sodipodi:role="line"
             id="tspan44">1.6</tspan></text>
</g><path
         d="m 258,830.5 15.5,0 M 258,861 l 15.5,0 m -15.5,30.5 15.5,0 m -15.5,31 15.5,0 M 258,953 l 31.5,0"
         style="fill:none;stroke:#000000;stroke-width:5;stroke-linecap:butt;stroke-linejoin:miter;stroke-miterlimit:3.79999995;stroke-dasharray:none;stroke-opacity:1"
         id="path46"
         inkscape:connector-curvature="0"
         sodipodi:nodetypes="cccccccccc" /><g
         id="g48"
         transform="scale(10,10)"><text
           transform="matrix(1,0,0,-1,13.8602,93.3)"
           style="font-variant:normal;font-weight:normal;font-size:6px;font-family:Helvetica;-inkscape-font-specification:Helvetica;writing-mode:lr-tb;fill:#000000;fill-opacity:1;fill-rule:nonzero;stroke:none"
           id="text50"><tspan
             x="0 3.336 5.0040002"
             y="0"
             sodipodi:role="line"
             id="tspan52">1.7</tspan></text>
</g><path
         d="m 258,983.5 15.5,0 m -15.5,31 15.5,0 m -15.5,30.5 15.5,0 m -15.5,30.5 15.5,0 m -15.5,31 31.5,0"
         style="fill:none;stroke:#000000;stroke-width:5;stroke-linecap:butt;stroke-linejoin:miter;stroke-miterlimit:3.79999995;stroke-dasharray:none;stroke-opacity:1"
         id="path54"
         inkscape:connector-curvature="0"
         sodipodi:nodetypes="cccccccccc" /><g
         id="g56"
         transform="scale(10,10)"><text
           transform="matrix(1,0,0,-1,13.8602,108.65)"
           style="font-variant:normal;font-weight:normal;font-size:6px;font-family:Helvetica;-inkscape-font-specification:Helvetica;writing-mode:lr-tb;fill:#000000;fill-opacity:1;fill-rule:nonzero;stroke:none"
           id="text58"><tspan
             x="0 3.336 5.0040002"
             y="0"
             sodipodi:role="line"
             id="tspan60">1.8</tspan></text>
</g><path
         d="m 258,1137 15.5,0 m -15.5,30.5 15.5,0 m -15.5,30.5 15.5,0 m -15.5,31 15.5,0 m -15.5,30.5 31.5,0"
         style="fill:none;stroke:#000000;stroke-width:5;stroke-linecap:butt;stroke-linejoin:miter;stroke-miterlimit:3.79999995;stroke-dasharray:none;stroke-opacity:1"
         id="path62"
         inkscape:connector-curvature="0"
         sodipodi:nodetypes="cccccccccc" /><g
         id="g64"
         transform="scale(10,10)"><text
           transform="matrix(1,0,0,-1,13.8602,123.95)"
           style="font-variant:normal;font-weight:normal;font-size:6px;font-family:Helvetica;-inkscape-font-specification:Helvetica;writing-mode:lr-tb;fill:#000000;fill-opacity:1;fill-rule:nonzero;stroke:none"
           id="text66"><tspan
             x="0 3.336 5.0040002"
             y="0"
             sodipodi:role="line"
             id="tspan68">1.9</tspan></text>
<text
           transform="matrix(0.70710678,-0.70710678,-0.70710678,-0.70710678,0,0)"
           style="font-variant:normal;font-weight:normal;font-size:6.00000191px;font-family:Helvetica;-inkscape-font-specification:Helvetica;writing-mode:lr-tb;fill:#000000;fill-opacity:1;fill-rule:nonzero;stroke:none"
           id="text70"
           x="16.086681"
           y="-46.260201"><tspan
             x="16.086681 20.088682 24.090685 28.092686 31.09269 34.428692"
             y="-46.260201"
             sodipodi:role="line"
             id="tspan72">PBEsol</tspan><tspan
             x="35.638191 39.640194 43.642197"
             y="-65.811714"
             sodipodi:role="line"
             id="tspan74">PBE</tspan><tspan
             x="55.225105 59.227108 63.229111 67.23111 70.897118 72.895119 75.895119 79.231117"
             y="-85.398621"
             sodipodi:role="line"
             id="tspan76">BEEF-vdW</tspan><tspan
             x="74.776619 79.10862 83.110619 87.112625 90.448624"
             y="-104.95014"
             sodipodi:role="line"
             id="tspan78">HSE06</tspan><tspan
             x="94.363533 98.365532 102.36754 106.36954 109.87354"
             y="-124.53705"
             sodipodi:role="line"
             id="tspan80">PBE+U</tspan><tspan
             x="113.91504 118.24705 122.24905 126.25104"
             y="-144.08853"
             sodipodi:role="line"
             id="tspan82">RPBE</tspan></text>
</g><path
         d="m 258,263.5 1744.64,0 -8.6874,996 -1735.9526,0 z"
         style="fill:none;stroke:#000000;stroke-width:5;stroke-linecap:butt;stroke-linejoin:miter;stroke-miterlimit:3.79999995;stroke-dasharray:none;stroke-opacity:1"
         id="path84"
         inkscape:connector-curvature="0"
         sodipodi:nodetypes="ccccc" /><g
         id="g86"
         transform="scale(10,10)"><text
           transform="matrix(0,1,1,0,6.2,54.1715)"
           style="font-variant:normal;font-weight:normal;font-size:6px;font-family:Symbol;-inkscape-font-specification:Symbol;writing-mode:lr-tb;fill:#000000;fill-opacity:1;fill-rule:nonzero;stroke:none"
           id="text88"><tspan
             x="0"
             y="0"
             id="tspan90">∆</tspan></text>
<text
           transform="matrix(0,1,1,0,6.2,57.84338)"
           style="font-variant:normal;font-weight:normal;font-size:6px;font-family:Helvetica;-inkscape-font-specification:Helvetica;writing-mode:lr-tb;fill:#000000;fill-opacity:1;fill-rule:nonzero;stroke:none"
           id="text92"><tspan
             x="0"
             y="0"
             id="tspan94">E</tspan></text>
<text
           transform="matrix(0,1,1,0,8,61.84533)"
           style="font-variant:normal;font-weight:normal;font-size:4.80000019px;font-family:Helvetica;-inkscape-font-specification:Helvetica;writing-mode:lr-tb;fill:#000000;fill-opacity:1;fill-rule:nonzero;stroke:none"
           id="text96"><tspan
             x="0"
             y="0"
             id="tspan98">O</tspan></text>
<text
           transform="matrix(0,1,1,0,6.2,67.24771)"
           style="font-variant:normal;font-weight:normal;font-size:6px;font-family:Helvetica;-inkscape-font-specification:Helvetica;writing-mode:lr-tb;fill:#000000;fill-opacity:1;fill-rule:nonzero;stroke:none"
           id="text100"><tspan
             x="0 1.998"
             y="0"
             sodipodi:role="line"
             id="tspan102">- </tspan></text>
<text
           transform="matrix(0,1,1,0,6.2,70.91369)"
           style="font-variant:normal;font-weight:normal;font-size:6px;font-family:Symbol;-inkscape-font-specification:Symbol;writing-mode:lr-tb;fill:#000000;fill-opacity:1;fill-rule:nonzero;stroke:none"
           id="text104"><tspan
             x="0"
             y="0"
             id="tspan106">∆</tspan></text>
<text
           transform="matrix(0,1,1,0,6.2,74.58557)"
           style="font-variant:normal;font-weight:normal;font-size:6px;font-family:Helvetica;-inkscape-font-specification:Helvetica;writing-mode:lr-tb;fill:#000000;fill-opacity:1;fill-rule:nonzero;stroke:none"
           id="text108"><tspan
             x="0"
             y="0"
             id="tspan110">E</tspan></text>
<text
           transform="matrix(0,1,1,0,8,78.58752)"
           style="font-variant:normal;font-weight:normal;font-size:4.80000019px;font-family:Helvetica;-inkscape-font-specification:Helvetica;writing-mode:lr-tb;fill:#000000;fill-opacity:1;fill-rule:nonzero;stroke:none"
           id="text112"><tspan
             x="0 3.7344"
             y="0"
             sodipodi:role="line"
             id="tspan114">OH</tspan></text>
<text
           transform="matrix(0,1,1,0,6.2,87.45552)"
           style="font-variant:normal;font-weight:normal;font-size:6px;font-family:Helvetica;-inkscape-font-specification:Helvetica;writing-mode:lr-tb;fill:#000000;fill-opacity:1;fill-rule:nonzero;stroke:none"
           id="text116"><tspan
             x="0 1.668 5.0040002 9.0059996"
             y="0"
             sodipodi:role="line"
             id="tspan118">[eV]</tspan></text>
<text
           transform="matrix(1,0,0,-1,73.6359,133.55)"
           style="font-variant:normal;font-weight:normal;font-size:6px;font-family:Helvetica;-inkscape-font-specification:Helvetica;writing-mode:lr-tb;fill:#000000;fill-opacity:1;fill-rule:nonzero;stroke:none"
           id="text120"><tspan
             x="0 4.6680002 8.6700001 13.002 14.67 18.006001 21.341999 24.341999 27.341999 29.34 30.672001 34.007999 35.675999 39.012001 41.009998 42.678001 46.014 49.349998 52.686001 54.683998 58.02 61.02 62.688 64.356003 67.692001 69.690002 71.358002 73.026001 75.024002"
             y="0"
             sodipodi:role="line"
             id="tspan122">OER descriptor energy for IrO</tspan></text>
<text
           transform="matrix(1,0,0,-1,153.3281,131.75)"
           style="font-variant:normal;font-weight:normal;font-size:4.80000019px;font-family:Helvetica;-inkscape-font-specification:Helvetica;writing-mode:lr-tb;fill:#000000;fill-opacity:1;fill-rule:nonzero;stroke:none"
           id="text124"><tspan
             x="0"
             y="0"
             id="tspan126">2</tspan></text>
</g><path
         d="m 743,1183 175.5,0 0,30 -175.5,0 0,-30 z"
         style="fill:#6666ff;fill-opacity:1;fill-rule:nonzero;stroke:none"
         id="path136"
         inkscape:connector-curvature="0" /><path
         d="m 743,1183 175.5,0 0,30 -175.5,0 0,-30 z"
         style="fill:none;stroke:#000000;stroke-width:2.5;stroke-linecap:butt;stroke-linejoin:miter;stroke-miterlimit:3.79999995;stroke-dasharray:none;stroke-opacity:1"
         id="path138"
         inkscape:connector-curvature="0" /><path
         d="m 427,263.5 50,0 0,891.5 -50,0 0,-891.5 z"
         style="fill:#6666ff;fill-opacity:1;fill-rule:nonzero;stroke:none"
         id="path140"
         inkscape:connector-curvature="0" /><path
         d="m 427,263.5 49.5,0 0,891 -49.5,0 0,-891 z"
         style="fill:none;stroke:#000000;stroke-width:2.5;stroke-linecap:butt;stroke-linejoin:miter;stroke-miterlimit:3.79999995;stroke-dasharray:none;stroke-opacity:1"
         id="path142"
         inkscape:connector-curvature="0" /><path
         d="m 703.5,263.5 50.5,0 0,616.5 -50.5,0 0,-616.5 z"
         style="fill:#6666ff;fill-opacity:1;fill-rule:nonzero;stroke:none"
         id="path144"
         inkscape:connector-curvature="0" /><path
         d="m 703.5,263.5 50,0 0,616 -50,0 0,-616 z"
         style="fill:none;stroke:#000000;stroke-width:2.5;stroke-linecap:butt;stroke-linejoin:miter;stroke-miterlimit:3.79999995;stroke-dasharray:none;stroke-opacity:1"
         id="path146"
         inkscape:connector-curvature="0" /><path
         d="m 980.5,263.5 50,0 0,508.5 -50,0 0,-508.5 z"
         style="fill:#6666ff;fill-opacity:1;fill-rule:nonzero;stroke:none"
         id="path148"
         inkscape:connector-curvature="0" /><path
         d="m 980.5,263.5 49.5,0 0,508 -49.5,0 0,-508 z"
         style="fill:none;stroke:#000000;stroke-width:2.5;stroke-linecap:butt;stroke-linejoin:miter;stroke-miterlimit:3.79999995;stroke-dasharray:none;stroke-opacity:1"
         id="path150"
         inkscape:connector-curvature="0" /><path
         d="m 1257,263.5 50.5,0 0,323 -50.5,0 0,-323 z"
         style="fill:#6666ff;fill-opacity:1;fill-rule:nonzero;stroke:none"
         id="path152"
         inkscape:connector-curvature="0" /><path
         d="m 1257,263.5 50,0 0,322.5 -50,0 0,-322.5 z"
         style="fill:none;stroke:#000000;stroke-width:2.5;stroke-linecap:butt;stroke-linejoin:miter;stroke-miterlimit:3.79999995;stroke-dasharray:none;stroke-opacity:1"
         id="path154"
         inkscape:connector-curvature="0" /><path
         d="m 1811,263.5 50,0 0,343 -50,0 0,-343 z"
         style="fill:#6666ff;fill-opacity:1;fill-rule:nonzero;stroke:none"
         id="path156"
         inkscape:connector-curvature="0" /><path
         d="m 1811,263.5 49.5,0 0,342.5 -49.5,0 0,-342.5 z"
         style="fill:none;stroke:#000000;stroke-width:2.5;stroke-linecap:butt;stroke-linejoin:miter;stroke-miterlimit:3.79999995;stroke-dasharray:none;stroke-opacity:1"
         id="path158"
         inkscape:connector-curvature="0" /><g
         id="g160"
         transform="scale(10,10)"><text
           transform="matrix(0,1,1,0,46.7,105.722)"
           style="font-variant:normal;font-weight:normal;font-size:4.5px;font-family:Helvetica;-inkscape-font-specification:Helvetica;writing-mode:lr-tb;fill:#000000;fill-opacity:1;fill-rule:nonzero;stroke:none"
           id="text162"><tspan
             x="0 2.5020001 3.753 6.2550001"
             y="0"
             sodipodi:role="line"
             id="tspan164">1.83</tspan><tspan
             x="-27.5 -24.997999 -23.747 -21.245001"
             y="27.65"
             sodipodi:role="line"
             id="tspan166">1.65</tspan><tspan
             x="-38.299999 -35.798 -34.547001 -32.044998"
             y="55.349998"
             sodipodi:role="line"
             id="tspan168">1.58</tspan><tspan
             x="-56.900002 -54.397999 -53.146999 -50.645"
             y="83"
             sodipodi:role="line"
             id="tspan170">1.46</tspan><tspan
             x="-54.849998 -52.348 -51.097 -48.595001"
             y="138.35001"
             sodipodi:role="line"
             id="tspan172">1.47</tspan></text>
<text
           transform="matrix(1,0,0,-1,95.45,111.8)"
           style="font-variant:normal;font-weight:normal;font-size:6px;font-family:Helvetica;-inkscape-font-specification:Helvetica;writing-mode:lr-tb;fill:#000000;fill-opacity:1;fill-rule:nonzero;stroke:none"
           id="text174"><tspan
             x="0 4.0019999 8.0039997 12.006"
             y="0"
             sodipodi:role="line"
             id="tspan176">VASP (spin polarized, high accuracy)</tspan></text>
</g><path
         d="m 743,1123 175.5,0 0,30 -175.5,0 0,-30 z"
         style="fill:#ff6666;fill-opacity:1;fill-rule:nonzero;stroke:none"
         id="path178"
         inkscape:connector-curvature="0" /><path
         d="m 743,1123 175.5,0 0,30 -175.5,0 0,-30 z"
         style="fill:none;stroke:#000000;stroke-width:2.5;stroke-linecap:butt;stroke-linejoin:miter;stroke-miterlimit:3.79999995;stroke-dasharray:none;stroke-opacity:1"
         id="path180"
         inkscape:connector-curvature="0" /><path
         d="m 759,263.5 50.5,0 0,686 -50.5,0 0,-686 z"
         style="fill:#ff6666;fill-opacity:1;fill-rule:nonzero;stroke:none"
         id="path182"
         inkscape:connector-curvature="0" /><path
         d="m 759,263.5 50,0 0,685.5 -50,0 0,-685.5 z"
         style="fill:none;stroke:#000000;stroke-width:2.5;stroke-linecap:butt;stroke-linejoin:miter;stroke-miterlimit:3.79999995;stroke-dasharray:none;stroke-opacity:1"
         id="path184"
         inkscape:connector-curvature="0" /><path
         d="m 1589.5,263.5 50,0 0,147.5 -50,0 0,-147.5 z"
         style="fill:#ff6666;fill-opacity:1;fill-rule:nonzero;stroke:none"
         id="path186"
         inkscape:connector-curvature="0" /><path
         d="m 1589.5,263.5 49.5,0 0,147 -49.5,0 0,-147 z"
         style="fill:none;stroke:#000000;stroke-width:2.5;stroke-linecap:butt;stroke-linejoin:miter;stroke-miterlimit:3.79999995;stroke-dasharray:none;stroke-opacity:1"
         id="path188"
         inkscape:connector-curvature="0" /><path
         d="m 1866,263.5 50.5,0 0,390.5 -50.5,0 0,-390.5 z"
         style="fill:#ff6666;fill-opacity:1;fill-rule:nonzero;stroke:none"
         id="path190"
         inkscape:connector-curvature="0" /><path
         d="m 1866,263.5 50,0 0,390 -50,0 0,-390 z"
         style="fill:none;stroke:#000000;stroke-width:2.5;stroke-linecap:butt;stroke-linejoin:miter;stroke-miterlimit:3.79999995;stroke-dasharray:none;stroke-opacity:1"
         id="path192"
         inkscape:connector-curvature="0" /><g
         id="g194"
         transform="scale(10,10)"><text
           transform="matrix(0,1,1,0,79.9,85.1219)"
           style="font-variant:normal;font-weight:normal;font-size:4.5px;font-family:Helvetica;-inkscape-font-specification:Helvetica;writing-mode:lr-tb;fill:#000000;fill-opacity:1;fill-rule:nonzero;stroke:none"
           id="text196"><tspan
             x="0 2.5020001 3.753 6.2550001"
             y="0"
             sodipodi:role="line"
             id="tspan198">1.70</tspan><tspan
             x="-53.849998 -51.348 -50.097 -47.595001"
             y="83.050003"
             sodipodi:role="line"
             id="tspan200">1.35</tspan><tspan
             x="-29.5 -26.997999 -25.747 -23.245001"
             y="110.7"
             sodipodi:role="line"
             id="tspan202">1.50</tspan></text>
</g><g
         id="g224"
         transform="scale(10,10)" /><g
         id="g246"
         transform="scale(10,10)" /><path
         d="m 811.5,953 0,0"
         style="fill:none;stroke:#000000;stroke-width:7.5;stroke-linecap:round;stroke-linejoin:miter;stroke-miterlimit:3.79999995;stroke-dasharray:none;stroke-opacity:1"
         id="path254"
         inkscape:connector-curvature="0" /><path
         d="m 811.5,953 0,0"
         style="fill:none;stroke:#000000;stroke-width:7.5;stroke-linecap:round;stroke-linejoin:miter;stroke-miterlimit:3.79999995;stroke-dasharray:none;stroke-opacity:1"
         id="path258"
         inkscape:connector-curvature="0" /><path
         d="m 811.5,953 0,0"
         style="fill:none;stroke:#000000;stroke-width:7.5;stroke-linecap:round;stroke-linejoin:miter;stroke-miterlimit:3.79999995;stroke-dasharray:none;stroke-opacity:1"
         id="path262"
         inkscape:connector-curvature="0" /><path
         d="m 811.5,953 0,0"
         style="fill:none;stroke:#000000;stroke-width:7.5;stroke-linecap:round;stroke-linejoin:miter;stroke-miterlimit:3.79999995;stroke-dasharray:none;stroke-opacity:1"
         id="path266"
         inkscape:connector-curvature="0" /><path
         d="m 811.5,953 0,0"
         style="fill:none;stroke:#000000;stroke-width:7.5;stroke-linecap:round;stroke-linejoin:miter;stroke-miterlimit:3.79999995;stroke-dasharray:none;stroke-opacity:1"
         id="path270"
         inkscape:connector-curvature="0" /><path
         d="m 811.5,953 0,0"
         style="fill:none;stroke:#000000;stroke-width:7.5;stroke-linecap:round;stroke-linejoin:miter;stroke-miterlimit:3.79999995;stroke-dasharray:none;stroke-opacity:1"
         id="path274"
         inkscape:connector-curvature="0" /><path
         d="m 811.5,953 0,0"
         style="fill:none;stroke:#000000;stroke-width:7.5;stroke-linecap:round;stroke-linejoin:miter;stroke-miterlimit:3.79999995;stroke-dasharray:none;stroke-opacity:1"
         id="path278"
         inkscape:connector-curvature="0" /><path
         d="m 258,263.5 1743.7712,0.86874 -8.6873,995.99996 L 258,1259.5 Z"
         style="fill:none;stroke:#000000;stroke-width:5;stroke-linecap:butt;stroke-linejoin:miter;stroke-miterlimit:3.79999995;stroke-dasharray:none;stroke-opacity:1"
         id="path280"
         inkscape:connector-curvature="0"
         sodipodi:nodetypes="ccccc" /></g><text
       y="-117.51796"
       x="95.641541"
       style="font-variant:normal;font-weight:normal;font-size:6px;font-family:Helvetica;-inkscape-font-specification:Helvetica;writing-mode:lr-tb;fill:#000000;fill-opacity:1;fill-rule:nonzero;stroke:none"
       id="text174-7"
       transform="scale(1,-1)"><tspan
         x="95.641541 99.643539 103.64554 107.64754 111.64954"
         y="-117.51796"
         sodipodi:role="line"
         id="tspan176-2">VASP (spin polarized, low accuracy)</tspan></text>
<rect
       style="opacity:0;fill:#ff6600;fill-opacity:1;fill-rule:nonzero;stroke:#00a000;stroke-width:0.80000001;stroke-linecap:round;stroke-linejoin:miter;stroke-miterlimit:4;stroke-dasharray:3.2, 0.80000000000000004;stroke-dashoffset:0;stroke-opacity:1"
       id="rect4445"
       width="173.5425"
       height="70.29879"
       x="26.208958"
       y="-110.46953"
       transform="scale(1,-1)" /><rect
       style="opacity:0;fill:#008080;fill-opacity:1;fill-rule:nonzero;stroke:#000000;stroke-width:0.80000001;stroke-linecap:round;stroke-linejoin:miter;stroke-miterlimit:4;stroke-dasharray:3.2, 0.80000000000000004;stroke-dashoffset:0;stroke-opacity:0"
       id="rect4447"
       width="25.964014"
       height="10.777515"
       x="126.51333"
       y="-83.525742"
       transform="scale(1,-1)" /><rect
       style="opacity:0;fill:#008080;fill-opacity:1;fill-rule:nonzero;stroke:#000000;stroke-width:0.80000001;stroke-linecap:round;stroke-linejoin:miter;stroke-miterlimit:4;stroke-dasharray:3.2, 0.8;stroke-dashoffset:0;stroke-opacity:0"
       id="rect4449"
       width="88.424606"
       height="11.022459"
       x="25.841541"
       y="-95.405502"
       transform="scale(1,-1)" /><rect
       style="opacity:0;fill:#008080;fill-opacity:1;fill-rule:nonzero;stroke:#000000;stroke-width:0.80000001;stroke-linecap:round;stroke-linejoin:miter;stroke-miterlimit:4;stroke-dasharray:3.2, 0.8;stroke-dashoffset:0;stroke-opacity:0"
       id="rect4451"
       width="52.295441"
       height="33.434792"
       x="115.98076"
       y="-99.936958"
       transform="scale(1,-1)" /><text
       xml:space="preserve"
       style="font-style:normal;font-variant:normal;font-weight:normal;font-stretch:normal;font-size:10px;line-height:125%;font-family:Arial;-inkscape-font-specification:'Arial, Normal';text-align:start;letter-spacing:0px;word-spacing:0px;writing-mode:lr-tb;text-anchor:start;fill:#000000;fill-opacity:1;stroke:none;stroke-width:1px;stroke-linecap:butt;stroke-linejoin:miter;stroke-opacity:1"
       x="115.61334"
       y="-80.831367"
       id="text4243"
       sodipodi:linespacing="125%"
       transform="scale(1,-1)"><tspan
         sodipodi:role="line"
         id="tspan4245"
         x="115.61334"
         y="-80.831367">Current DFT </tspan><tspan
         sodipodi:role="line"
         x="115.61334"
         y="-68.331367"
         id="tspan4247">Uncertainty  </tspan></text>
<text
       xml:space="preserve"
       style="font-style:normal;font-variant:normal;font-weight:normal;font-stretch:normal;font-size:10px;line-height:125%;font-family:Arial;-inkscape-font-specification:'Arial, Normal';text-align:start;letter-spacing:0px;word-spacing:0px;writing-mode:lr-tb;text-anchor:start;fill:#000000;fill-opacity:1;stroke:none;stroke-width:1px;stroke-linecap:butt;stroke-linejoin:miter;stroke-opacity:1"
       x="207.22221"
       y="-67.726883"
       id="text4249"
       sodipodi:linespacing="125%"
       transform="scale(1,-1)"><tspan
         sodipodi:role="line"
         id="tspan4251"
         x="207.22221"
         y="-67.726883" /></text>
</g></svg>