<?xml version="1.0" encoding="UTF-8" standalone="no"?>
<svg
   xmlns:dc="http://purl.org/dc/elements/1.1/"
   xmlns:cc="http://creativecommons.org/ns#"
   xmlns:rdf="http://www.w3.org/1999/02/22-rdf-syntax-ns#"
   xmlns:svg="http://www.w3.org/2000/svg"
   xmlns="http://www.w3.org/2000/svg"
   viewBox="0 0 442.6666565 322.6666565"
   height="322.6666565"
   width="442.6666565"
   xml:space="preserve"
   id="svg2"
   version="1.1"><metadata
     id="metadata8"><rdf:RDF><cc:Work
         rdf:about=""><dc:format>image/svg+xml</dc:format><dc:type
           rdf:resource="http://purl.org/dc/dcmitype/StillImage" /></cc:Work></rdf:RDF></metadata><defs
     id="defs6"><clipPath
       id="clipPath18"
       clipPathUnits="userSpaceOnUse"><path
         style="clip-rule:evenodd"
         id="path16"
         d="M 0,0 H 332 V 241.86426 H 0 Z" /></clipPath><clipPath
       id="clipPath30"
       clipPathUnits="userSpaceOnUse"><path
         style="clip-rule:evenodd"
         id="path28"
         d="M 0,0 H 327.49323 V 238.1086 H 0 Z" /></clipPath><clipPath
       id="clipPath44"
       clipPathUnits="userSpaceOnUse"><path
         style="clip-rule:evenodd"
         id="path42"
         d="M 289.57166,37.498402 H 37.582386 V 200.24147 H 289.57166 Z" /></clipPath><clipPath
       id="clipPath158"
       clipPathUnits="userSpaceOnUse"><path
         style="clip-rule:evenodd"
         id="path156"
         d="M 0,0 H 327.49323 V 238.1086 H 0 Z" /></clipPath></defs><g
     transform="scale(1.333333333)"
     id="g10"><g
       id="g12"><g
         clip-path="url(#clipPath18)"
         id="g14"><g
           transform="scale(0.75113124)"
           id="g20"><path
             id="path22"
             style="fill:#fafafa;fill-opacity:0.9019607843;fill-rule:nonzero;stroke:none"
             d="M 0,0 H 442 V 322 H 0 Z" /></g></g></g><g
       id="g24"><g
         clip-path="url(#clipPath30)"
         id="g26"><g
           transform="matrix(0.74996805,0,0,0.74996805,0.08398436,0)"
           id="g32"><path
             id="path34"
             style="fill:#000000;fill-opacity:0;fill-rule:nonzero;stroke:none"
             d="M 0,0 H 436.45227 V 317.49167 H 0 Z" /><path
             id="path36"
             style="fill:#000000;fill-opacity:0;fill-rule:nonzero;stroke:none"
             d="M 50,50 H 386 V 267 H 50 Z" /></g></g></g><g
       id="g38"><g
         clip-path="url(#clipPath44)"
         id="g40"><g
           transform="matrix(0.7511313,0,0,0.7511313,37.582386,37.498402)"
           id="g46"><path
             id="path48"
             style="fill:#7fc97f;fill-opacity:1;fill-rule:nonzero;stroke:none"
             d="m 0,143.945969 h 8.999999 v 1 H 0 m 17.999998,-1 h 9 v 1 h -9 m 17.999998,-1 h 9 v 1 h -9 m 18,-1 h 9 v 1 h -9 m 17.999996,-1 h 9 v 1 h -9 m 18,-1 h 9 v 1 h -9 m 18,-1 h 9 v 1 h -9 m 18,-1 h 8.999993 v 1 h -8.999993 m 17.999993,-1 h 9 v 1 h -9 m 18,-1 h 8.999995 v 1 h -8.999995 m 17.999995,-1 h 9 v 1 h -9 m 18,-1 h 9 v 1 h -9 m 18,-1 h 9 v 1 h -9 m 18,-1 h 9 v 1 h -9 m 18,-1 h 8.99999 v 1 h -8.99999 m 17.99999,-1 h 9 v 1 h -9 m 18,-1 h 9 v 1 h -9 m 18,-1 h 9 v 1 h -9 m 18,-1 h 9 v 1 h -9" /><path
             id="path50"
             style="fill:#beaed4;fill-opacity:1;fill-rule:nonzero;stroke:none"
             d="m 0,17.552002 h 8.999999 v 1 H 0 m 17.999998,-1 h 9 v 1 h -9 m 17.999998,-1 h 9 v 1 h -9 m 18,-1 h 9 v 1 h -9 m 17.999996,-1 h 9 v 1 h -9 m 18,-1 h 9 v 1 h -9 m 18,-1 h 9 v 1 h -9 m 18,-1 h 8.999993 v 1 h -8.999993 m 17.999993,-1 h 9 v 1 h -9 m 18,-1 h 8.999995 v 1 h -8.999995 m 17.999995,-1 h 9 v 1 h -9 m 18,-1 h 9 v 1 h -9 m 18,-1 h 9 v 1 h -9 m 18,-1 h 9 v 1 h -9 m 18,-1 h 8.99999 v 1 h -8.99999 m 17.99999,-1 h 9 v 1 h -9 m 18,-1 h 9 v 1 h -9 m 18,-1 h 9 v 1 h -9 m 18,-1 h 9 v 1 h -9" /><path
             id="path52"
             style="fill:#000000;fill-opacity:1;fill-rule:nonzero;stroke:none"
             d="m -0.73126203,288.19983 3.41048433,-3.65631 1.4625242,1.36419 -3.41048447,3.65632 z m 4.77467803,-5.11884 3.4104843,-3.65631 1.4625245,1.3642 -3.4104844,3.65631 z m 4.7746783,-5.11883 3.4104843,-3.65631 1.4625244,1.36419 -3.4104843,3.65631 z m 4.7746772,-5.11884 3.4104845,-3.65631 1.462524,1.3642 -3.4104841,3.65631 z m 4.7746795,-5.11883 3.410482,-3.65631 1.462525,1.36419 -3.410483,3.65631 z m 4.774679,-5.11884 3.410486,-3.65628 1.462517,1.3642 -3.410486,3.65628 z m 4.774673,-5.1188 3.410485,-3.65633 1.462526,1.3642 -3.410482,3.65632 z m 4.77468,-5.11885 3.410484,-3.6563 1.462524,1.3642 -3.410484,3.65629 z m 4.774681,-5.11884 3.41048,-3.6563 1.462525,1.3642 -3.410481,3.6563 z m 4.774677,-5.11882 3.41048,-3.65631 1.462525,1.3642 -3.410481,3.65631 z m 4.774673,-5.11883 3.410489,-3.65632 1.462524,1.3642 -3.410488,3.65631 z m 4.774681,-5.11884 3.410485,-3.65631 1.462524,1.3642 -3.410484,3.65631 z m 4.774678,-5.11884 3.410484,-3.65631 1.462524,1.3642 -3.410484,3.65631 z m 4.774677,-5.11883 3.410488,-3.65631 1.462525,1.36419 -3.410489,3.65632 z m 4.774677,-5.11884 3.410485,-3.65631 1.462524,1.3642 -3.410484,3.65631 z m 4.774681,-5.11883 3.410485,-3.65631 1.462524,1.36419 -3.410484,3.65631 z m 4.774681,-5.11884 3.410485,-3.65631 1.462524,1.3642 -3.410484,3.65631 z m 4.774674,-5.11882 3.410484,-3.65629 1.462525,1.36419 -3.410485,3.6563 z m 4.774681,-5.11883 3.410477,-3.6563 1.462524,1.3642 -3.410477,3.65629 z m 4.774673,-5.11882 3.410485,-3.65631 1.462524,1.36419 -3.410484,3.65631 z m 4.774674,-5.11884 3.410492,-3.65631 1.462524,1.3642 -3.410492,3.65631 z m 4.774681,-5.11883 3.410492,-3.65632 1.462524,1.3642 -3.410492,3.65631 z m 4.774681,-5.11884 3.410484,-3.65631 1.462525,1.3642 -3.410484,3.65631 z m 4.774681,-5.11884 3.410477,-3.656306 1.462524,1.364196 -3.410476,3.65631 z m 4.774674,-5.118831 3.410484,-3.656311 1.462524,1.364197 -3.410484,3.656311 z m 4.774688,-5.118835 3.410469,-3.656296 1.462525,1.364197 -3.410469,3.656296 z m 4.774666,-5.118836 3.410492,-3.656295 1.462517,1.364196 -3.410484,3.656296 z m 4.774681,-5.11882 3.410477,-3.656311 1.462524,1.364197 -3.410476,3.656311 z m 4.774674,-5.118835 3.410492,-3.656311 1.462524,1.364197 -3.410492,3.656311 z m 4.774673,-5.118836 3.410492,-3.656311 1.462525,1.364197 -3.410492,3.656311 z m 4.774689,-5.118835 3.410492,-3.656311 1.462524,1.364197 -3.410492,3.656311 z m 4.774673,-5.11882 3.410477,-3.656311 1.462525,1.364196 -3.410477,3.656312 z m 4.774689,-5.118851 3.410477,-3.656311 1.462524,1.364197 -3.410476,3.656311 z m 4.774674,-5.11882 3.410476,-3.656311 1.462525,1.364197 -3.410477,3.656311 z m 4.774673,-5.118836 3.410492,-3.656311 1.462524,1.364197 -3.410491,3.656311 z m 4.774674,-5.118835 3.410488,-3.656311 1.46253,1.364197 -3.41049,3.656311 z m 4.774688,-5.118836 3.41048,-3.656295 1.46252,1.364196 -3.41048,3.656296 z m 4.77467,-5.118835 3.41048,-3.656311 1.46252,1.364197 -3.41047,3.656311 z m 4.77468,-5.11882 3.41047,-3.656311 1.46253,1.364197 -3.41048,3.656311 z m 4.77469,-5.118836 3.41047,-3.656311 1.46253,1.364197 -3.41048,3.656311 z m 4.77465,-5.118835 3.4105,-3.656311 1.46252,1.364197 -3.41049,3.656311 z m 4.77469,-5.118836 3.41049,-3.656311 1.46253,1.364197 -3.41049,3.656311 z m 4.77468,-5.11882 1.87744,-2.012771 1.41049,1.493484 1.58745,1.708832 -1.4653,1.361191 -1.57619,-1.696793 -0.67894,-0.718887 0.72702,-0.686615 0.73126,0.682098 -1.15071,1.233658 z m 6.23658,2.654869 3.40297,3.663292 -1.46533,1.361191 -3.40297,-3.663292 z m 4.76415,5.128617 3.40298,3.663292 -1.4653,1.36119 -3.40298,-3.663291 z m 4.76419,5.128608 3.40298,3.6633 -1.46533,1.361191 -3.40298,-3.6633 z m 4.76417,5.128617 3.40297,3.663299 -1.46533,1.361191 -3.40297,-3.663299 z m 4.76416,5.128616 3.40299,3.6633 -1.46533,1.36119 -3.40299,-3.663299 z m 4.76417,5.128616 3.40298,3.663292 -1.4653,1.361191 -3.40299,-3.663292 z m 4.76416,5.128617 3.40298,3.663292 -1.4653,1.36119 -3.40299,-3.663291 z m 4.76419,5.128608 3.40298,3.6633 -1.46533,1.361191 -3.40299,-3.6633 z m 4.76417,5.128617 3.40297,3.663299 -1.46533,1.361191 -3.40297,-3.663299 z m 4.76416,5.128616 3.40299,3.6633 -1.46534,1.36119 -3.40298,-3.663299 z m 4.76418,5.128616 3.40297,3.663308 -1.46534,1.361175 -3.40297,-3.663299 z m 4.76417,5.128609 3.40299,3.6633 -1.46534,1.361206 -3.40298,-3.6633 z m 4.76416,5.128616 3.40299,3.6633 -1.46533,1.361206 -3.40299,-3.663299 z m 4.76419,5.128632 3.40296,3.663284 -1.46533,1.361176 -3.40296,-3.663284 z m 4.76416,5.128616 3.40296,3.6633 -1.46533,1.361176 -3.40296,-3.6633 z m 4.76416,5.128601 3.40299,3.663285 -1.46533,1.361206 -3.40299,-3.663284 z m 4.76416,5.128617 3.40299,3.663299 -1.46533,1.361206 -3.40299,-3.663299 z m 4.76419,5.128616 0.77472,0.834 0.66837,0.718216 1.9606,2.11029 -1.46521,1.361298 -1.9595,-2.1091 -0.66959,-0.719529 -0.77472,-0.833999 z m 4.76499,5.127734 3.40326,3.66305 -1.46521,1.3613 -3.40326,-3.66305 z m 4.76452,5.12828 3.40326,3.66305 -1.46521,1.3613 -3.40326,-3.66305 z m 4.76456,5.12826 3.40323,3.66306 -1.46521,1.3613 -3.40323,-3.66306 z m 4.76453,5.12828 3.40323,3.66306 -1.46521,1.3613 -3.40323,-3.66306 z m 4.76452,5.12828 3.40323,3.66306 -1.46521,1.3613 -3.40323,-3.66306 z m 4.76453,5.12829 3.40326,3.66304 -1.46521,1.36129 -3.40326,-3.66304 z m 4.76456,5.12828 3.40323,3.66304 -1.46521,1.36129 -3.40323,-3.66304 z m 4.76452,5.12826 3.40323,3.66306 -1.46521,1.36129 -3.40323,-3.66305 z m 4.76453,5.12828 3.40323,3.66306 -1.46521,1.3613 -3.40323,-3.66306 z m 4.76453,5.12828 1.53381,1.6509 -1.46521,1.36129 -1.53381,-1.65089 z" /><path
             id="path54"
             style="fill:#808080;fill-opacity:1;fill-rule:nonzero;stroke:none"
             d="M -0.75814766,254.00294 2.50227,250.2122 l 1.5162952,1.30417 -3.26041754,3.79074 z m 4.56458496,-5.30702 3.2604181,-3.79074 1.5162955,1.30417 -3.2604189,3.79074 z m 4.5645849,-5.30703 3.2604189,-3.79075 1.5162945,1.30417 -3.2604189,3.79074 z m 4.5645857,-5.30703 3.260416,-3.79074 1.5162961,1.30417 -3.2604176,3.79074 z m 4.5645831,-5.30703 3.26042,-3.79074 1.516296,1.30416 -3.26042,3.79074 z m 4.564588,-5.30704 3.260416,-3.79073 1.516293,1.30417 -3.260416,3.79073 z m 4.564585,-5.30702 3.260418,-3.79073 1.516293,1.30417 -3.260418,3.79073 z m 4.564583,-5.30703 3.260418,-3.79074 1.516296,1.30417 -3.260418,3.79074 z m 4.564583,-5.30703 3.260421,-3.79074 1.516297,1.30416 -3.260422,3.79075 z m 4.56459,-5.30704 3.260418,-3.79073 1.516289,1.30417 -3.260418,3.79073 z m 4.564583,-5.30702 3.260418,-3.79074 1.516296,1.30417 -3.260418,3.79074 z m 4.564583,-5.30702 3.260418,-3.79075 1.516296,1.30417 -3.260418,3.79074 z m 4.564586,-5.30704 3.260418,-3.79074 1.516297,1.30417 -3.260418,3.79074 z m 4.564591,-5.30704 3.260418,-3.79072 1.516289,1.30416 -3.260418,3.79073 z m 4.564583,-5.30702 3.260418,-3.79073 1.516296,1.30417 -3.260422,3.79073 z m 4.564586,-5.30702 0.773827,-0.89971 0.683327,-0.78383 1.808632,-2.10263 1.51622,1.30426 -1.817315,2.11264 -0.674568,0.77373 -0.773826,0.89971 z m 4.570031,-5.3024 3.26062,-3.79056 1.51622,1.30426 -3.26062,3.79056 z m 4.564865,-5.306795 3.260612,-3.790558 1.51622,1.30426 -3.260612,3.790558 z m 4.564857,-5.306793 3.260613,-3.790558 1.51622,1.30426 -3.260613,3.790558 z m 4.564858,-5.306794 3.26062,-3.790557 1.51622,1.30426 -3.26062,3.790558 z m 4.564865,-5.306793 3.260612,-3.790558 1.51622,1.304261 -3.260612,3.790557 z m 4.564857,-5.306793 3.26062,-3.790558 1.51622,1.30426 -3.26062,3.790558 z m 4.564858,-5.306778 3.26062,-3.790573 1.51622,1.30426 -3.26062,3.790573 z m 4.564865,-5.306808 3.260612,-3.790558 1.51622,1.30426 -3.260612,3.790558 z m 4.564857,-5.306778 3.260605,-3.790566 1.516235,1.304245 -3.260604,3.790566 z m 4.564858,-5.306794 3.26062,-3.790565 1.51622,1.304245 -3.26062,3.790565 z m 4.564865,-5.306793 3.26062,-3.790565 1.51622,1.304245 -3.26062,3.790565 z m 4.564857,-5.306785 3.260613,-3.790574 1.516235,1.304245 -3.260612,3.790574 z m 4.564865,-5.306801 3.260605,-3.790566 1.516236,1.304245 -3.26062,3.790566 z m 4.56485,-5.306793 3.26062,-3.790566 1.516236,1.304245 -3.26062,3.790566 z m 4.56485,-5.306786 3.26062,-3.790573 1.516236,1.304245 -3.26062,3.790573 z m 4.564881,-5.306801 3.260604,-3.790558 1.516236,1.304245 -3.260605,3.790558 z m 4.564849,-5.306793 3.260621,-3.790566 1.516235,1.304245 -3.26062,3.790566 z m 4.564866,-5.306793 3.26062,-3.790573 1.516235,1.304245 -3.26062,3.790573 z m 4.564865,-5.306794 3.26062,-3.790573 1.516235,1.304245 -3.26062,3.790573 z m 4.564849,-5.306793 3.260621,-3.790565 1.516235,1.304245 -3.26062,3.790565 z m 4.564866,-5.306793 3.260604,-3.790565 1.51624,1.304245 -3.260609,3.790565 z m 4.564864,-5.306793 3.26062,-3.790566 1.51624,1.304245 -3.26062,3.790566 z m 4.56485,-5.306793 3.26062,-3.790566 1.51624,1.304245 -3.26062,3.790566 z m 4.56488,-5.306813 0.75319,-0.875549 1.48428,1.151985 2.74324,2.952694 -1.46524,1.36129 -2.68792,-2.893169 0.73262,-0.680645 -0.61313,0.789985 -0.66896,-0.519188 0.61313,-0.789989 0.7581,0.652142 -0.1331,0.154727 z m 6.342,4.694367 3.40321,3.663078 -1.46524,1.361282 -3.40321,-3.663078 z m 4.76449,5.128311 3.40322,3.663078 -1.46524,1.361283 -3.40322,-3.663079 z m 4.7645,5.128307 3.40321,3.663079 -1.46524,1.361282 -3.40321,-3.663078 z m 4.76449,5.128311 3.40322,3.663079 -1.46524,1.361282 -3.40322,-3.663078 z m 4.7645,5.128312 3.40321,3.663078 -1.46524,1.361282 -3.40321,-3.663078 z m 4.7645,5.128311 3.40321,3.663078 -1.46524,1.361282 -3.40322,-3.663078 z m 4.76449,5.128311 3.40321,3.663078 -1.46524,1.361283 -3.40321,-3.663079 z m 4.7645,5.128311 3.40321,3.663071 -1.46524,1.361282 -3.40321,-3.663071 z m 4.76449,5.128304 3.40323,3.66307 -1.46524,1.361298 -3.40323,-3.663071 z m 4.76451,5.128318 3.40322,3.663071 -1.46524,1.361282 -3.40322,-3.66307 z m 4.76448,5.128304 3.40323,3.663078 -1.46524,1.361283 -3.40323,-3.663079 z m 4.76452,5.128311 3.40321,3.663078 -1.46524,1.361283 -3.40321,-3.663079 z m 4.76449,5.128311 3.40322,3.663079 -1.46525,1.361282 -3.40321,-3.663078 z m 4.7645,5.128311 3.40321,3.663079 -1.46524,1.361282 -3.40321,-3.663078 z m 4.76449,5.128312 3.40322,3.66307 -1.46524,1.361283 -3.40322,-3.663071 z m 4.7645,5.128295 3.4032,3.663071 -1.46521,1.361298 -3.40323,-3.663071 z m 4.7645,5.128327 3.40319,3.663086 -1.46521,1.361267 -3.40319,-3.663086 z m 4.76449,5.128296 3.4032,3.66307 -1.46521,1.361298 -3.4032,-3.663071 z m 4.76447,5.128311 3.40322,3.663086 -1.4652,1.361297 -3.40323,-3.663085 z m 4.76452,5.128326 3.4032,3.663086 -1.46521,1.361267 -3.4032,-3.663086 z m 4.7645,5.128311 3.4032,3.663086 -1.46521,1.361268 -3.4032,-3.663086 z m 4.76449,5.128296 3.4032,3.663086 -1.46521,1.361267 -3.4032,-3.663086 z m 4.7645,5.128312 3.4032,3.663074 -1.46521,1.36129 -3.4032,-3.663067 z m 4.7645,5.128314 3.40319,3.66307 -1.46521,1.36129 -3.40319,-3.66307 z m 4.76449,5.12831 3.4032,3.66307 -1.46521,1.3613 -3.4032,-3.66307 z m 4.7645,5.12831 3.4032,3.66308 -1.46521,1.36127 -3.4032,-3.66308 z m 4.76449,5.12831 3.40323,3.66307 -1.46521,1.3613 -3.40323,-3.66307 z m 4.7645,5.12831 3.4032,3.66307 -1.46521,1.3613 -3.4032,-3.66307 z m 4.7645,5.1283 3.40322,3.66308 -1.46521,1.3613 -3.40322,-3.66309 z m 4.76449,5.12832 3.4032,3.66309 -1.46521,1.36127 -3.4032,-3.66309 z m 4.7645,5.1283 3.40323,3.66309 -1.46521,1.36129 -3.40323,-3.66308 z m 4.76449,5.12833 3.4032,3.66308 -1.46521,1.36127 -3.4032,-3.66309 z m 4.7645,5.12829 0.13394,0.14417 -1.46521,1.36129 -0.13394,-0.14416 z" /></g><g
           transform="matrix(0.74996805,0,0,0.74996805,136.458176,140.334015)"
           id="g56"><path
             id="path58"
             style="fill:#7fc97f;fill-opacity:1;fill-rule:nonzero;stroke:none"
             d="M 4.5,0 C 4.5,3 3,4.5 0,4.5 -3,4.5 -4.5,3 -4.5,0 -4.5,-3 -3,-4.5 0,-4.5 3,-4.5 4.5,-3 4.5,0 Z" /><path
             id="path60"
             style="fill:none;stroke:#000000;stroke-width:1;stroke-linecap:butt;stroke-linejoin:miter;stroke-miterlimit:10;stroke-dasharray:none;stroke-opacity:1"
             d="M 4.5,0 C 4.5,3 3,4.5 0,4.5 -3,4.5 -4.5,3 -4.5,0 -4.5,-3 -3,-4.5 0,-4.5 3,-4.5 4.5,-3 4.5,0 Z" /></g><g
           transform="matrix(0.74996805,0,0,0.74996805,128.351013,154.988403)"
           id="g62"><path
             id="path64"
             style="fill:#7fc97f;fill-opacity:1;fill-rule:nonzero;stroke:none"
             d="M 4.5,0 C 4.5,3 3,4.5 0,4.5 -3,4.5 -4.5,3 -4.5,0 -4.5,-3 -3,-4.5 0,-4.5 3,-4.5 4.5,-3 4.5,0 Z" /><path
             id="path66"
             style="fill:none;stroke:#000000;stroke-width:1;stroke-linecap:butt;stroke-linejoin:miter;stroke-miterlimit:10;stroke-dasharray:none;stroke-opacity:1"
             d="M 4.5,0 C 4.5,3 3,4.5 0,4.5 -3,4.5 -4.5,3 -4.5,0 -4.5,-3 -3,-4.5 0,-4.5 3,-4.5 4.5,-3 4.5,0 Z" /></g><g
           transform="matrix(0.74996805,0,0,0.74996805,144.475327,101.635666)"
           id="g68"><path
             id="path70"
             style="fill:#beaed4;fill-opacity:1;fill-rule:nonzero;stroke:none"
             d="M -5.1999998,2.25 H 5.1999998 L 0,-4.5 Z" /><path
             id="path72"
             style="fill:none;stroke:#000000;stroke-width:1;stroke-linecap:butt;stroke-linejoin:miter;stroke-miterlimit:10;stroke-dasharray:none;stroke-opacity:1"
             d="M -5.1999998,2.25 H 5.1999998 L 0,-4.5 Z" /></g><g
           transform="matrix(0.74996805,0,0,0.74996805,158.649719,76.534241)"
           id="g74"><path
             id="path76"
             style="fill:#beaed4;fill-opacity:1;fill-rule:nonzero;stroke:none"
             d="M 4.5,0 C 4.5,3 3,4.5 0,4.5 -3,4.5 -4.5,3 -4.5,0 -4.5,-3 -3,-4.5 0,-4.5 3,-4.5 4.5,-3 4.5,0 Z" /><path
             id="path78"
             style="fill:none;stroke:#000000;stroke-width:1;stroke-linecap:butt;stroke-linejoin:miter;stroke-miterlimit:10;stroke-dasharray:none;stroke-opacity:1"
             d="M 4.5,0 C 4.5,3 3,4.5 0,4.5 -3,4.5 -4.5,3 -4.5,0 -4.5,-3 -3,-4.5 0,-4.5 3,-4.5 4.5,-3 4.5,0 Z" /></g><g
           transform="matrix(0.74996805,0,0,0.74996805,196.19313,120.159882)"
           id="g80"><path
             id="path82"
             style="fill:#beaed4;fill-opacity:1;fill-rule:nonzero;stroke:none"
             d="M -5.1999998,2.25 H 5.1999998 L 0,-4.5 Z" /><path
             id="path84"
             style="fill:none;stroke:#000000;stroke-width:1;stroke-linecap:butt;stroke-linejoin:miter;stroke-miterlimit:10;stroke-dasharray:none;stroke-opacity:1"
             d="M -5.1999998,2.25 H 5.1999998 L 0,-4.5 Z" /></g><g
           transform="matrix(0.74996805,0,0,0.74996805,184.06615,86.673805)"
           id="g86"><path
             id="path88"
             style="fill:#beaed4;fill-opacity:1;fill-rule:nonzero;stroke:none"
             d="M 4.5,0 C 4.5,3 3,4.5 0,4.5 -3,4.5 -4.5,3 -4.5,0 -4.5,-3 -3,-4.5 0,-4.5 3,-4.5 4.5,-3 4.5,0 Z" /><path
             id="path90"
             style="fill:none;stroke:#000000;stroke-width:1;stroke-linecap:butt;stroke-linejoin:miter;stroke-miterlimit:10;stroke-dasharray:none;stroke-opacity:1"
             d="M 4.5,0 C 4.5,3 3,4.5 0,4.5 -3,4.5 -4.5,3 -4.5,0 -4.5,-3 -3,-4.5 0,-4.5 3,-4.5 4.5,-3 4.5,0 Z" /></g><g
           transform="matrix(0.74996805,0,0,0.74996805,246.23099,153.585953)"
           id="g92"><path
             id="path94"
             style="fill:#beaed4;fill-opacity:1;fill-rule:nonzero;stroke:none"
             d="M 4.5,0 C 4.5,3 3,4.5 0,4.5 -3,4.5 -4.5,3 -4.5,0 -4.5,-3 -3,-4.5 0,-4.5 3,-4.5 4.5,-3 4.5,0 Z" /><path
             id="path96"
             style="fill:none;stroke:#000000;stroke-width:1;stroke-linecap:butt;stroke-linejoin:miter;stroke-miterlimit:10;stroke-dasharray:none;stroke-opacity:1"
             d="M 4.5,0 C 4.5,3 3,4.5 0,4.5 -3,4.5 -4.5,3 -4.5,0 -4.5,-3 -3,-4.5 0,-4.5 3,-4.5 4.5,-3 4.5,0 Z" /></g><g
           transform="matrix(0.74996805,0,0,0.74996805,180.1963,83.178955)"
           id="g98"><path
             id="path100"
             style="fill:#beaed4;fill-opacity:1;fill-rule:nonzero;stroke:none"
             d="M -5.1999998,2.25 H 5.1999998 L 0,-4.5 Z" /><path
             id="path102"
             style="fill:none;stroke:#000000;stroke-width:1;stroke-linecap:butt;stroke-linejoin:miter;stroke-miterlimit:10;stroke-dasharray:none;stroke-opacity:1"
             d="M -5.1999998,2.25 H 5.1999998 L 0,-4.5 Z" /></g><g
           transform="matrix(0.74996805,0,0,0.74996805,178.0739,90.221161)"
           id="g104"><path
             id="path106"
             style="fill:#beaed4;fill-opacity:1;fill-rule:nonzero;stroke:none"
             d="M 4.5,0 C 4.5,3 3,4.5 0,4.5 -3,4.5 -4.5,3 -4.5,0 -4.5,-3 -3,-4.5 0,-4.5 3,-4.5 4.5,-3 4.5,0 Z" /><path
             id="path108"
             style="fill:none;stroke:#000000;stroke-width:1;stroke-linecap:butt;stroke-linejoin:miter;stroke-miterlimit:10;stroke-dasharray:none;stroke-opacity:1"
             d="M 4.5,0 C 4.5,3 3,4.5 0,4.5 -3,4.5 -4.5,3 -4.5,0 -4.5,-3 -3,-4.5 0,-4.5 3,-4.5 4.5,-3 4.5,0 Z" /></g><g
           transform="matrix(0.74996805,0,0,0.74996805,190.94336,94.488472)"
           id="g110"><path
             id="path112"
             style="fill:#ff9dcd;fill-opacity:1;fill-rule:nonzero;stroke:none"
             d="M 4.5,0 C 4.5,3 3,4.5 0,4.5 -3,4.5 -4.5,3 -4.5,0 -4.5,-3 -3,-4.5 0,-4.5 3,-4.5 4.5,-3 4.5,0 Z" /><path
             id="path114"
             style="fill:none;stroke:#000000;stroke-width:1;stroke-linecap:butt;stroke-linejoin:miter;stroke-miterlimit:10;stroke-dasharray:none;stroke-opacity:1"
             d="M 4.5,0 C 4.5,3 3,4.5 0,4.5 -3,4.5 -4.5,3 -4.5,0 -4.5,-3 -3,-4.5 0,-4.5 3,-4.5 4.5,-3 4.5,0 Z" /></g><g
           transform="matrix(0.74996805,0,0,0.74996805,206.88017,138.159119)"
           id="g116"><path
             id="path118"
             style="fill:#ff9dcd;fill-opacity:1;fill-rule:nonzero;stroke:none"
             d="M 4.5,0 C 4.5,3 3,4.5 0,4.5 -3,4.5 -4.5,3 -4.5,0 -4.5,-3 -3,-4.5 0,-4.5 3,-4.5 4.5,-3 4.5,0 Z" /><path
             id="path120"
             style="fill:none;stroke:#000000;stroke-width:1;stroke-linecap:butt;stroke-linejoin:miter;stroke-miterlimit:10;stroke-dasharray:none;stroke-opacity:1"
             d="M 4.5,0 C 4.5,3 3,4.5 0,4.5 -3,4.5 -4.5,3 -4.5,0 -4.5,-3 -3,-4.5 0,-4.5 3,-4.5 4.5,-3 4.5,0 Z" /></g><g
           transform="matrix(0.74996805,0,0,0.74996805,233.09906,139.449066)"
           id="g122"><path
             id="path124"
             style="fill:#fdc086;fill-opacity:1;fill-rule:nonzero;stroke:none"
             d="M -5.1999998,2.25 H 5.1999998 L 0,-4.5 Z" /><path
             id="path126"
             style="fill:none;stroke:#000000;stroke-width:1;stroke-linecap:butt;stroke-linejoin:miter;stroke-miterlimit:10;stroke-dasharray:none;stroke-opacity:1"
             d="M -5.1999998,2.25 H 5.1999998 L 0,-4.5 Z" /></g><g
           transform="matrix(0.74996805,0,0,0.74996805,147.115219,112.727692)"
           id="g128"><path
             id="path130"
             style="fill:#fdc086;fill-opacity:1;fill-rule:nonzero;stroke:none"
             d="M 4.5,0 C 4.5,3 3,4.5 0,4.5 -3,4.5 -4.5,3 -4.5,0 -4.5,-3 -3,-4.5 0,-4.5 3,-4.5 4.5,-3 4.5,0 Z" /><path
             id="path132"
             style="fill:none;stroke:#000000;stroke-width:1;stroke-linecap:butt;stroke-linejoin:miter;stroke-miterlimit:10;stroke-dasharray:none;stroke-opacity:1"
             d="M 4.5,0 C 4.5,3 3,4.5 0,4.5 -3,4.5 -4.5,3 -4.5,0 -4.5,-3 -3,-4.5 0,-4.5 3,-4.5 4.5,-3 4.5,0 Z" /></g><g
           transform="matrix(0.74996805,0,0,0.74996805,182.58121,85.07637)"
           id="g134"><path
             id="path136"
             style="fill:#fdc086;fill-opacity:1;fill-rule:nonzero;stroke:none"
             d="M 4.5,0 C 4.5,3 3,4.5 0,4.5 -3,4.5 -4.5,3 -4.5,0 -4.5,-3 -3,-4.5 0,-4.5 3,-4.5 4.5,-3 4.5,0 Z" /><path
             id="path138"
             style="fill:none;stroke:#000000;stroke-width:1;stroke-linecap:butt;stroke-linejoin:miter;stroke-miterlimit:10;stroke-dasharray:none;stroke-opacity:1"
             d="M 4.5,0 C 4.5,3 3,4.5 0,4.5 -3,4.5 -4.5,3 -4.5,0 -4.5,-3 -3,-4.5 0,-4.5 3,-4.5 4.5,-3 4.5,0 Z" /></g><g
           transform="matrix(0.74996805,0,0,0.74996805,179.40884,81.664017)"
           id="g140"><path
             id="path142"
             style="fill:#fdc086;fill-opacity:1;fill-rule:nonzero;stroke:none"
             d="M -5.1999998,2.25 H 5.1999998 L 0,-4.5 Z" /><path
             id="path144"
             style="fill:none;stroke:#000000;stroke-width:1;stroke-linecap:butt;stroke-linejoin:miter;stroke-miterlimit:10;stroke-dasharray:none;stroke-opacity:1"
             d="M -5.1999998,2.25 H 5.1999998 L 0,-4.5 Z" /></g><g
           transform="matrix(0.74996805,0,0,0.74996805,185.28859,87.993752)"
           id="g146"><path
             id="path148"
             style="fill:#fdc086;fill-opacity:1;fill-rule:nonzero;stroke:none"
             d="M 4.5,0 C 4.5,3 3,4.5 0,4.5 -3,4.5 -4.5,3 -4.5,0 -4.5,-3 -3,-4.5 0,-4.5 3,-4.5 4.5,-3 4.5,0 Z" /><path
             id="path150"
             style="fill:none;stroke:#000000;stroke-width:1;stroke-linecap:butt;stroke-linejoin:miter;stroke-miterlimit:10;stroke-dasharray:none;stroke-opacity:1"
             d="M 4.5,0 C 4.5,3 3,4.5 0,4.5 -3,4.5 -4.5,3 -4.5,0 -4.5,-3 -3,-4.5 0,-4.5 3,-4.5 4.5,-3 4.5,0 Z" /></g></g></g><g
       id="g152"><g
         clip-path="url(#clipPath158)"
         id="g154"><g
           transform="matrix(0.74996805,0,0,0.74996805,0.08398436,0)"
           id="g160"><path
             id="path162"
             style="fill:none;stroke:#000000;stroke-width:1;stroke-linecap:butt;stroke-linejoin:miter;stroke-miterlimit:10;stroke-dasharray:none;stroke-opacity:1"
             d="M 49,267.5 H 387 M 49,49.5 h 338" /><path
             id="path164"
             style="fill:none;stroke:#000000;stroke-width:1;stroke-linecap:butt;stroke-linejoin:miter;stroke-miterlimit:10;stroke-dasharray:none;stroke-opacity:1"
             d="M 49.5,50 V 267 M 386.5,50 V 267" /></g><g
           transform="matrix(0.74996805,0,0,0.74996805,87.98024,0)"
           id="g166"><path
             id="path168"
             style="fill:#000000;fill-opacity:1;fill-rule:nonzero;stroke:none"
             d="m 0,267 v -2" /><path
             id="path170"
             style="fill:none;stroke:#000000;stroke-width:1;stroke-linecap:butt;stroke-linejoin:miter;stroke-miterlimit:10;stroke-dasharray:none;stroke-opacity:1"
             d="m 0,267 v -2" /></g><g
           transform="matrix(0.74996805,0,0,0.74996805,138.378082,0)"
           id="g172"><path
             id="path174"
             style="fill:#000000;fill-opacity:1;fill-rule:nonzero;stroke:none"
             d="m 0,267 v -2" /><path
             id="path176"
             style="fill:none;stroke:#000000;stroke-width:1;stroke-linecap:butt;stroke-linejoin:miter;stroke-miterlimit:10;stroke-dasharray:none;stroke-opacity:1"
             d="m 0,267 v -2" /></g><g
           transform="matrix(0.74996805,0,0,0.74996805,188.77596,0)"
           id="g178"><path
             id="path180"
             style="fill:#000000;fill-opacity:1;fill-rule:nonzero;stroke:none"
             d="m 0,267 v -2" /><path
             id="path182"
             style="fill:none;stroke:#000000;stroke-width:1;stroke-linecap:butt;stroke-linejoin:miter;stroke-miterlimit:10;stroke-dasharray:none;stroke-opacity:1"
             d="m 0,267 v -2" /></g><g
           transform="matrix(0.74996805,0,0,0.74996805,239.1738,0)"
           id="g184"><path
             id="path186"
             style="fill:#000000;fill-opacity:1;fill-rule:nonzero;stroke:none"
             d="m 0,267 v -2" /><path
             id="path188"
             style="fill:none;stroke:#000000;stroke-width:1;stroke-linecap:butt;stroke-linejoin:miter;stroke-miterlimit:10;stroke-dasharray:none;stroke-opacity:1"
             d="m 0,267 v -2" /></g><g
           transform="matrix(0.7511313,0,0,0.7511313,37.582386,0)"
           id="g190"><g
             id="text194"
             style="font-variant:normal;font-weight:normal;font-size:10.6499996185px;font-family:Arimo;-inkscape-font-specification:Arimo;writing-mode:lr-tb;fill:#000000;fill-opacity:1;fill-rule:nonzero;stroke:none"
             transform="translate(-2.9589081,280.36514)"
             aria-label="1"><path
               id="path354"
               style=""
               d="M 0.8112304397,0 V -0.7956298543 H 2.67810049 V -6.432641371 l -1.65366205,1.180444294 v -0.884033172 l 1.731664977,-1.190844684 h 0.863232391 v 6.5314450787 H 5.403002736 V 0 Z" /></g></g><g
           transform="matrix(0.7511313,0,0,0.7511313,87.98024,0)"
           id="g196"><g
             id="text200"
             style="font-variant:normal;font-weight:normal;font-size:10.6499996185px;font-family:Arimo;-inkscape-font-specification:Arimo;writing-mode:lr-tb;fill:#000000;fill-opacity:1;fill-rule:nonzero;stroke:none"
             transform="translate(-7.3959732,280.36514)"
             aria-label="1.2"><path
               id="path357"
               style=""
               d="M 0.8112304397,0 V -0.7956298543 H 2.67810049 V -6.432641371 l -1.65366205,1.180444294 v -0.884033172 l 1.731664977,-1.190844684 h 0.863232391 v 6.5314450787 H 5.403002736 V 0 Z" /><path
               id="path359"
               style=""
               d="M 6.890252651,0 V -1.138842733 H 7.9042907 V 0 Z" /><path
               id="path361"
               style=""
               d="m 9.409750347,0 v -0.660424781 q 0.265209951,-0.60842283 0.644824193,-1.071240196 0.38481444,-0.468017561 0.80603025,-0.84243161 0.4212158,-0.379614245 0.83203122,-0.702026343 0.41601561,-0.322412097 0.7488281,-0.644824195 0.33281248,-0.322412098 0.53562009,-0.676025367 0.20800781,-0.353613268 0.20800781,-0.800830049 0,-0.603222635 -0.35361327,-0.936035123 -0.35361327,-0.332812488 -0.98283688,-0.332812488 -0.59802244,0 -0.98803707,0.327612293 -0.38481444,0.322412098 -0.45241698,0.910034147 l -0.956835902,-0.08840332 q 0.104003903,-0.878832976 0.743627902,-1.398852489 0.6448242,-0.520019513 1.65366205,-0.520019513 1.10764156,0 1.70046381,0.525219708 0.59802244,0.520019513 0.59802244,1.482055611 0,0.426416001 -0.19760742,0.847631806 -0.19240722,0.421215805 -0.57722166,0.84243161 -0.38481444,0.421215805 -1.47165522,1.305248977 -0.59802244,0.488818342 -0.95163571,0.884033171 -0.35361326,0.390014635 -0.50961912,0.7540282937 H 14.2615324 V 0 Z" /></g></g><g
           transform="matrix(0.7511313,0,0,0.7511313,138.378082,0)"
           id="g202"><g
             id="text206"
             style="font-variant:normal;font-weight:normal;font-size:10.6499996185px;font-family:Arimo;-inkscape-font-specification:Arimo;writing-mode:lr-tb;fill:#000000;fill-opacity:1;fill-rule:nonzero;stroke:none"
             transform="translate(-7.3959732,280.36514)"
             aria-label="1.4"><path
               id="path364"
               style=""
               d="M 0.8112304397,0 V -0.7956298543 H 2.67810049 V -6.432641371 l -1.65366205,1.180444294 v -0.884033172 l 1.731664977,-1.190844684 h 0.863232391 v 6.5314450787 H 5.403002736 V 0 Z" /><path
               id="path366"
               style=""
               d="M 6.890252651,0 V -1.138842733 H 7.9042907 V 0 Z" /><path
               id="path368"
               style=""
               d="M 13.45550216,-1.658862245 V 0 H 12.57146898 V -1.658862245 H 9.11853942 v -0.728027318 l 3.35412586,-4.94018537 h 0.98283688 v 4.92978498 h 1.02963863 v 0.738427708 z m -0.88403318,-4.612573077 q -0.0104004,0.03120117 -0.14560546,0.275610341 -0.13520507,0.244409171 -0.20280761,0.343212879 l -1.87727044,2.766503807 -0.28081054,0.384814439 -0.08320312,0.104003903 h 2.589697169 z" /></g></g><g
           transform="matrix(0.7511313,0,0,0.7511313,188.77596,0)"
           id="g208"><g
             id="text212"
             style="font-variant:normal;font-weight:normal;font-size:10.6499996185px;font-family:Arimo;-inkscape-font-specification:Arimo;writing-mode:lr-tb;fill:#000000;fill-opacity:1;fill-rule:nonzero;stroke:none"
             transform="translate(-7.3959732,280.36514)"
             aria-label="1.6"><path
               id="path371"
               style=""
               d="M 0.8112304397,0 V -0.7956298543 H 2.67810049 V -6.432641371 l -1.65366205,1.180444294 v -0.884033172 l 1.731664977,-1.190844684 h 0.863232391 v 6.5314450787 H 5.403002736 V 0 Z" /><path
               id="path373"
               style=""
               d="M 6.890252651,0 V -1.138842733 H 7.9042907 V 0 Z" /><path
               id="path375"
               style=""
               d="m 14.32913494,-2.397289953 q 0,1.159643513 -0.62922361,1.8304686842 -0.62922361,0.6708251713 -1.73686518,0.6708251713 -1.23764644,0 -1.89287102,-0.9204345373 -0.655224588,-0.9204345372 -0.655224588,-2.6781004902 0,-1.903271416 0.681225558,-2.922509661 0.68122557,-1.019238245 1.93967279,-1.019238245 1.65886224,0 2.09047844,1.492456002 l -0.89443357,0.161206049 q -0.27561034,-0.894433562 -1.20644526,-0.894433562 -0.80083005,0 -1.24284664,0.748828098 -0.43681639,0.743627903 -0.43681639,2.158080977 0.25480956,-0.473217756 0.71762693,-0.717626927 0.46281736,-0.249609366 1.0608398,-0.249609366 1.01403805,0 1.6068603,0.634423805 0.59802244,0.634423806 0.59802244,1.705664002 z m -0.95163571,0.04160156 q 0,-0.795629854 -0.39001464,-1.22724605 -0.39001463,-0.431616195 -1.08684078,-0.431616195 -0.65522458,0 -1.0608398,0.384814439 -0.40041503,0.379614244 -0.40041503,1.050439415 0,0.847631806 0.41601561,1.388452099 0.42121581,0.5408202932 1.07644039,0.5408202932 0.67602537,0 1.06083981,-0.4524169762 0.38481444,-0.457617171 0.38481444,-1.253247025 z" /></g></g><g
           transform="matrix(0.7511313,0,0,0.7511313,239.1738,0)"
           id="g214"><g
             id="text218"
             style="font-variant:normal;font-weight:normal;font-size:10.6499996185px;font-family:Arimo;-inkscape-font-specification:Arimo;writing-mode:lr-tb;fill:#000000;fill-opacity:1;fill-rule:nonzero;stroke:none"
             transform="translate(-7.3959732,280.36514)"
             aria-label="1.8"><path
               id="path378"
               style=""
               d="M 0.8112304397,0 V -0.7956298543 H 2.67810049 V -6.432641371 l -1.65366205,1.180444294 v -0.884033172 l 1.731664977,-1.190844684 h 0.863232391 v 6.5314450787 H 5.403002736 V 0 Z" /><path
               id="path380"
               style=""
               d="M 6.890252651,0 V -1.138842733 H 7.9042907 V 0 Z" /><path
               id="path382"
               style=""
               d="m 14.33433513,-2.043676685 q 0,1.01403805 -0.64482419,1.5808593188 -0.6448242,0.5668212687 -1.85126947,0.5668212687 -1.1752441,0 -1.840869074,-0.5564208785 -0.660424781,-0.556420878 -0.660424781,-1.580859318 0,-0.717626928 0.410815415,-1.20644527 0.41081542,-0.488818342 1.05043942,-0.592822244 v -0.02080078 Q 10.20018001,-3.993749857 9.851766933,-4.461767418 9.508554054,-4.92978498 9.508554054,-5.55900859 q 0,-0.837231415 0.624023416,-1.357250928 0.62922361,-0.520019513 1.68486322,-0.520019513 1.08164059,0 1.705664,0.509619123 0.62922361,0.509619122 0.62922361,1.378051708 0,0.629223611 -0.34841307,1.097241172 -0.34841307,0.468017561 -0.95163571,0.587622049 v 0.02080078 q 0.70202634,0.114404292 1.09204098,0.598022439 0.39001463,0.478417952 0.39001463,1.201245074 z m -1.15444332,-3.452929563 q 0,-1.242846636 -1.36245112,-1.242846636 -0.66042478,0 -1.00883785,0.312011708 -0.34321288,0.312011708 -0.34321288,0.930834928 0,0.62922361 0.35361327,0.962036098 0.35881346,0.327612293 1.00883785,0.327612293 0.66042478,0 1.00363766,-0.301611317 0.34841307,-0.306811513 0.34841307,-0.988037074 z m 0.18200683,3.364526246 q 0,-0.681225561 -0.40561522,-1.02443844 -0.40561522,-0.348413073 -1.13884273,-0.348413073 -0.71242673,0 -1.11284176,0.374414049 -0.40041502,0.369213854 -0.40041502,1.019238245 0,1.5132567815 1.54445795,1.5132567815 0.76442868,0 1.13884273,-0.3640136589 0.37441405,-0.3692138536 0.37441405,-1.1700439036 z" /></g></g><g
           transform="matrix(0.7511313,0,0,0.7511313,289.57166,0)"
           id="g220"><g
             id="text224"
             style="font-variant:normal;font-weight:normal;font-size:10.6499996185px;font-family:Arimo;-inkscape-font-specification:Arimo;writing-mode:lr-tb;fill:#000000;fill-opacity:1;fill-rule:nonzero;stroke:none"
             transform="translate(-2.9589081,280.36514)"
             aria-label="2"><path
               id="path385"
               style=""
               d="m 0.535620098,0 v -0.660424781 q 0.2652099514,-0.60842283 0.644824196,-1.071240196 0.384814439,-0.468017561 0.806030244,-0.84243161 0.421215805,-0.379614245 0.83203122,-0.702026343 0.416015611,-0.322412097 0.748828099,-0.644824195 0.332812488,-0.322412098 0.535620098,-0.676025367 0.208007805,-0.353613268 0.208007805,-0.800830049 0,-0.603222635 -0.353613269,-0.936035123 -0.353613269,-0.332812488 -0.982836879,-0.332812488 -0.598022439,0 -0.988037074,0.327612293 -0.384814439,0.322412098 -0.452416976,0.910034147 l -0.956835903,-0.08840332 q 0.1040039025,-0.878832976 0.743627903,-1.398852489 0.644824196,-0.520019513 1.65366205,-0.520019513 1.107641562,0 1.700463806,0.525219708 0.59802244,0.520019513 0.59802244,1.482055611 0,0.426416001 -0.197607415,0.847631806 -0.192407219,0.421215805 -0.577221659,0.84243161 -0.384814439,0.421215805 -1.471655221,1.305248977 -0.598022439,0.488818342 -0.951635708,0.884033171 -0.353613268,0.390014635 -0.509619122,0.7540282937 H 5.387402151 V 0 Z" /></g></g><g
           transform="matrix(0.74996805,0,0,0.74996805,0.08398436,173.11513)"
           id="g226"><path
             id="path228"
             style="fill:#000000;fill-opacity:1;fill-rule:nonzero;stroke:none"
             d="m 50,0 h 2 m 334,0 h -2" /><path
             id="path230"
             style="fill:none;stroke:#000000;stroke-width:1;stroke-linecap:butt;stroke-linejoin:miter;stroke-miterlimit:10;stroke-dasharray:none;stroke-opacity:1"
             d="m 50,0 h 2 m 334,0 h -2" /></g><g
           transform="matrix(0.74996805,0,0,0.74996805,0.08398436,145.996277)"
           id="g232"><path
             id="path234"
             style="fill:#000000;fill-opacity:1;fill-rule:nonzero;stroke:none"
             d="m 50,0 h 2 m 334,0 h -2" /><path
             id="path236"
             style="fill:none;stroke:#000000;stroke-width:1;stroke-linecap:butt;stroke-linejoin:miter;stroke-miterlimit:10;stroke-dasharray:none;stroke-opacity:1"
             d="m 50,0 h 2 m 334,0 h -2" /></g><g
           transform="matrix(0.74996805,0,0,0.74996805,0.08398436,118.869934)"
           id="g238"><path
             id="path240"
             style="fill:#000000;fill-opacity:1;fill-rule:nonzero;stroke:none"
             d="m 50,0 h 2 m 334,0 h -2" /><path
             id="path242"
             style="fill:none;stroke:#000000;stroke-width:1;stroke-linecap:butt;stroke-linejoin:miter;stroke-miterlimit:10;stroke-dasharray:none;stroke-opacity:1"
             d="m 50,0 h 2 m 334,0 h -2" /></g><g
           transform="matrix(0.74996805,0,0,0.74996805,0.08398436,91.743591)"
           id="g244"><path
             id="path246"
             style="fill:#000000;fill-opacity:1;fill-rule:nonzero;stroke:none"
             d="m 50,0 h 2 m 334,0 h -2" /><path
             id="path248"
             style="fill:none;stroke:#000000;stroke-width:1;stroke-linecap:butt;stroke-linejoin:miter;stroke-miterlimit:10;stroke-dasharray:none;stroke-opacity:1"
             d="m 50,0 h 2 m 334,0 h -2" /></g><g
           transform="matrix(0.74996805,0,0,0.74996805,0.08398436,64.624748)"
           id="g250"><path
             id="path252"
             style="fill:#000000;fill-opacity:1;fill-rule:nonzero;stroke:none"
             d="m 50,0 h 2 m 334,0 h -2" /><path
             id="path254"
             style="fill:none;stroke:#000000;stroke-width:1;stroke-linecap:butt;stroke-linejoin:miter;stroke-miterlimit:10;stroke-dasharray:none;stroke-opacity:1"
             d="m 50,0 h 2 m 334,0 h -2" /></g><g
           transform="matrix(0.7511313,0,0,0.7511313,0.08398436,200.24147)"
           id="g256"><g
             id="text260"
             style="font-variant:normal;font-weight:normal;font-size:10.6499996185px;font-family:Arimo;-inkscape-font-specification:Arimo;writing-mode:lr-tb;fill:#000000;fill-opacity:1;fill-rule:nonzero;stroke:none"
             transform="translate(40.87627,3.7275519)"
             aria-label="2"><path
               id="path388"
               style=""
               d="m 0.535620098,0 v -0.660424781 q 0.2652099514,-0.60842283 0.644824196,-1.071240196 0.384814439,-0.468017561 0.806030244,-0.84243161 0.421215805,-0.379614245 0.83203122,-0.702026343 0.416015611,-0.322412097 0.748828099,-0.644824195 0.332812488,-0.322412098 0.535620098,-0.676025367 0.208007805,-0.353613268 0.208007805,-0.800830049 0,-0.603222635 -0.353613269,-0.936035123 -0.353613269,-0.332812488 -0.982836879,-0.332812488 -0.598022439,0 -0.988037074,0.327612293 -0.384814439,0.322412098 -0.452416976,0.910034147 l -0.956835903,-0.08840332 q 0.1040039025,-0.878832976 0.743627903,-1.398852489 0.644824196,-0.520019513 1.65366205,-0.520019513 1.107641562,0 1.700463806,0.525219708 0.59802244,0.520019513 0.59802244,1.482055611 0,0.426416001 -0.197607415,0.847631806 -0.192407219,0.421215805 -0.577221659,0.84243161 -0.384814439,0.421215805 -1.471655221,1.305248977 -0.598022439,0.488818342 -0.951635708,0.884033171 -0.353613268,0.390014635 -0.509619122,0.7540282937 H 5.387402151 V 0 Z" /></g></g><g
           transform="matrix(0.7511313,0,0,0.7511313,0.08398436,173.11513)"
           id="g262"><g
             id="text266"
             style="font-variant:normal;font-weight:normal;font-size:10.6499996185px;font-family:Arimo;-inkscape-font-specification:Arimo;writing-mode:lr-tb;fill:#000000;fill-opacity:1;fill-rule:nonzero;stroke:none"
             transform="translate(32.00214,3.7275519)"
             aria-label="1.9"><path
               id="path391"
               style=""
               d="M 0.8112304397,0 V -0.7956298543 H 2.67810049 V -6.432641371 l -1.65366205,1.180444294 v -0.884033172 l 1.731664977,-1.190844684 h 0.863232391 v 6.5314450787 H 5.403002736 V 0 Z" /><path
               id="path393"
               style=""
               d="M 6.890252651,0 V -1.138842733 H 7.9042907 V 0 Z" /><path
               id="path395"
               style=""
               d="m 14.29273357,-3.811743028 q 0,1.887670831 -0.69162595,2.9017088809 -0.68642576,1.0140380496 -1.96047356,1.0140380496 -0.8580322,0 -1.37805171,-0.3588134637 Q 9.74776303,-0.61882322 9.52415464,-1.424853465 l 0.89443356,-0.140405268 q 0.28081054,0.9152343422 1.23764644,0.9152343422 0.80603025,0 1.24804683,-0.7488280982 0.44201659,-0.748828098 0.46281737,-2.137280197 -0.20800781,0.468017562 -0.71242673,0.754028293 -0.50441893,0.280810537 -1.10764157,0.280810537 -0.98803707,0 -1.580859314,-0.676025366 -0.592822245,-0.676025367 -0.592822245,-1.794067319 0,-1.149243123 0.644824199,-1.804467708 0.64482419,-0.660424782 1.79406732,-0.660424782 1.22204585,0 1.85126946,0.904833952 0.62922361,0.904833952 0.62922361,2.719702051 z m -1.01923824,-0.904833951 q 0,-0.884033172 -0.40561522,-1.41965327 -0.40561522,-0.540820293 -1.08684079,-0.540820293 -0.67602536,0 -1.06604,0.462817366 -0.39001463,0.457617171 -0.39001463,1.242846635 0,0.80083005 0.39001463,1.268847611 0.39001464,0.462817366 1.05563961,0.462817366 0.40561522,0 0.7540283,-0.182006829 0.34841307,-0.187207025 0.54602049,-0.525219708 0.20280761,-0.338012683 0.20280761,-0.769628878 z" /></g></g><g
           transform="matrix(0.7511313,0,0,0.7511313,0.08398436,145.996277)"
           id="g268"><g
             id="text272"
             style="font-variant:normal;font-weight:normal;font-size:10.6499996185px;font-family:Arimo;-inkscape-font-specification:Arimo;writing-mode:lr-tb;fill:#000000;fill-opacity:1;fill-rule:nonzero;stroke:none"
             transform="translate(32.00214,3.7275519)"
             aria-label="1.8"><path
               id="path398"
               style=""
               d="M 0.8112304397,0 V -0.7956298543 H 2.67810049 V -6.432641371 l -1.65366205,1.180444294 v -0.884033172 l 1.731664977,-1.190844684 h 0.863232391 v 6.5314450787 H 5.403002736 V 0 Z" /><path
               id="path400"
               style=""
               d="M 6.890252651,0 V -1.138842733 H 7.9042907 V 0 Z" /><path
               id="path402"
               style=""
               d="m 14.33433513,-2.043676685 q 0,1.01403805 -0.64482419,1.5808593188 -0.6448242,0.5668212687 -1.85126947,0.5668212687 -1.1752441,0 -1.840869074,-0.5564208785 -0.660424781,-0.556420878 -0.660424781,-1.580859318 0,-0.717626928 0.410815415,-1.20644527 0.41081542,-0.488818342 1.05043942,-0.592822244 v -0.02080078 Q 10.20018001,-3.993749857 9.851766933,-4.461767418 9.508554054,-4.92978498 9.508554054,-5.55900859 q 0,-0.837231415 0.624023416,-1.357250928 0.62922361,-0.520019513 1.68486322,-0.520019513 1.08164059,0 1.705664,0.509619123 0.62922361,0.509619122 0.62922361,1.378051708 0,0.629223611 -0.34841307,1.097241172 -0.34841307,0.468017561 -0.95163571,0.587622049 v 0.02080078 q 0.70202634,0.114404292 1.09204098,0.598022439 0.39001463,0.478417952 0.39001463,1.201245074 z m -1.15444332,-3.452929563 q 0,-1.242846636 -1.36245112,-1.242846636 -0.66042478,0 -1.00883785,0.312011708 -0.34321288,0.312011708 -0.34321288,0.930834928 0,0.62922361 0.35361327,0.962036098 0.35881346,0.327612293 1.00883785,0.327612293 0.66042478,0 1.00363766,-0.301611317 0.34841307,-0.306811513 0.34841307,-0.988037074 z m 0.18200683,3.364526246 q 0,-0.681225561 -0.40561522,-1.02443844 -0.40561522,-0.348413073 -1.13884273,-0.348413073 -0.71242673,0 -1.11284176,0.374414049 -0.40041502,0.369213854 -0.40041502,1.019238245 0,1.5132567815 1.54445795,1.5132567815 0.76442868,0 1.13884273,-0.3640136589 0.37441405,-0.3692138536 0.37441405,-1.1700439036 z" /></g></g><g
           transform="matrix(0.7511313,0,0,0.7511313,0.08398436,118.869934)"
           id="g274"><g
             id="text278"
             style="font-variant:normal;font-weight:normal;font-size:10.6499996185px;font-family:Arimo;-inkscape-font-specification:Arimo;writing-mode:lr-tb;fill:#000000;fill-opacity:1;fill-rule:nonzero;stroke:none"
             transform="translate(32.00214,3.7275519)"
             aria-label="1.7"><path
               id="path405"
               style=""
               d="M 0.8112304397,0 V -0.7956298543 H 2.67810049 V -6.432641371 l -1.65366205,1.180444294 v -0.884033172 l 1.731664977,-1.190844684 h 0.863232391 v 6.5314450787 H 5.403002736 V 0 Z" /><path
               id="path407"
               style=""
               d="M 6.890252651,0 V -1.138842733 H 7.9042907 V 0 Z" /><path
               id="path409"
               style=""
               d="m 14.2615324,-6.567846444 q -1.12324215,1.716064391 -1.58605951,2.68850088 -0.46281737,0.972436488 -0.69682615,1.918872001 Q 11.74983815,-1.01403805 11.74983815,0 h -0.97763668 q 0,-1.404052684 0.59282224,-2.953710832 0.59802244,-1.554858342 1.99167474,-3.577734247 H 9.420150737 V -7.327074933 H 14.2615324 Z" /></g></g><g
           transform="matrix(0.7511313,0,0,0.7511313,0.08398436,91.743591)"
           id="g280"><g
             id="text284"
             style="font-variant:normal;font-weight:normal;font-size:10.6499996185px;font-family:Arimo;-inkscape-font-specification:Arimo;writing-mode:lr-tb;fill:#000000;fill-opacity:1;fill-rule:nonzero;stroke:none"
             transform="translate(32.00214,3.7275519)"
             aria-label="1.6"><path
               id="path412"
               style=""
               d="M 0.8112304397,0 V -0.7956298543 H 2.67810049 V -6.432641371 l -1.65366205,1.180444294 v -0.884033172 l 1.731664977,-1.190844684 h 0.863232391 v 6.5314450787 H 5.403002736 V 0 Z" /><path
               id="path414"
               style=""
               d="M 6.890252651,0 V -1.138842733 H 7.9042907 V 0 Z" /><path
               id="path416"
               style=""
               d="m 14.32913494,-2.397289953 q 0,1.159643513 -0.62922361,1.8304686842 -0.62922361,0.6708251713 -1.73686518,0.6708251713 -1.23764644,0 -1.89287102,-0.9204345373 -0.655224588,-0.9204345372 -0.655224588,-2.6781004902 0,-1.903271416 0.681225558,-2.922509661 0.68122557,-1.019238245 1.93967279,-1.019238245 1.65886224,0 2.09047844,1.492456002 l -0.89443357,0.161206049 q -0.27561034,-0.894433562 -1.20644526,-0.894433562 -0.80083005,0 -1.24284664,0.748828098 -0.43681639,0.743627903 -0.43681639,2.158080977 0.25480956,-0.473217756 0.71762693,-0.717626927 0.46281736,-0.249609366 1.0608398,-0.249609366 1.01403805,0 1.6068603,0.634423805 0.59802244,0.634423806 0.59802244,1.705664002 z m -0.95163571,0.04160156 q 0,-0.795629854 -0.39001464,-1.22724605 -0.39001463,-0.431616195 -1.08684078,-0.431616195 -0.65522458,0 -1.0608398,0.384814439 -0.40041503,0.379614244 -0.40041503,1.050439415 0,0.847631806 0.41601561,1.388452099 0.42121581,0.5408202932 1.07644039,0.5408202932 0.67602537,0 1.06083981,-0.4524169762 0.38481444,-0.457617171 0.38481444,-1.253247025 z" /></g></g><g
           transform="matrix(0.7511313,0,0,0.7511313,0.08398436,64.624748)"
           id="g286"><g
             id="text290"
             style="font-variant:normal;font-weight:normal;font-size:10.6499996185px;font-family:Arimo;-inkscape-font-specification:Arimo;writing-mode:lr-tb;fill:#000000;fill-opacity:1;fill-rule:nonzero;stroke:none"
             transform="translate(32.00214,3.7275519)"
             aria-label="1.5"><path
               id="path419"
               style=""
               d="M 0.8112304397,0 V -0.7956298543 H 2.67810049 V -6.432641371 l -1.65366205,1.180444294 v -0.884033172 l 1.731664977,-1.190844684 h 0.863232391 v 6.5314450787 H 5.403002736 V 0 Z" /><path
               id="path421"
               style=""
               d="M 6.890252651,0 V -1.138842733 H 7.9042907 V 0 Z" /><path
               id="path423"
               style=""
               d="m 14.34993572,-2.386889563 q 0,1.159643513 -0.69162595,1.8252684894 -0.68642576,0.6656249761 -1.90847162,0.6656249761 -1.02443844,0 -1.65366205,-0.4472167808 Q 9.466952493,-0.7904296592 9.300546249,-1.638061465 l 0.946435511,-0.109204097 q 0.29641112,1.086840781 1.52365717,1.086840781 0.7540283,0 1.1804443,-0.452416976 0.426416,-0.457617171 0.426416,-1.253247025 0,-0.691625952 -0.4316162,-1.118041953 -0.426416,-0.426416 -1.15444332,-0.426416 -0.37961424,0 -0.70722653,0.119604488 -0.3276123,0.119604488 -0.65522459,0.40561522 H 9.51375425 l 0.24440917,-3.941747906 h 4.1653563 v 0.795629854 h -3.3125243 l -0.14040527,2.324487222 q 0.60842283,-0.468017561 1.51325678,-0.468017561 1.08164059,0 1.72126459,0.634423805 0.6448242,0.634423805 0.6448242,1.65366205 z" /></g></g><g
           transform="matrix(0.7511313,0,0,0.7511313,0.08398436,37.498402)"
           id="g292"><g
             id="text296"
             style="font-variant:normal;font-weight:normal;font-size:10.6499996185px;font-family:Arimo;-inkscape-font-specification:Arimo;writing-mode:lr-tb;fill:#000000;fill-opacity:1;fill-rule:nonzero;stroke:none"
             transform="translate(32.00214,3.7275519)"
             aria-label="1.4"><path
               id="path426"
               style=""
               d="M 0.8112304397,0 V -0.7956298543 H 2.67810049 V -6.432641371 l -1.65366205,1.180444294 v -0.884033172 l 1.731664977,-1.190844684 h 0.863232391 v 6.5314450787 H 5.403002736 V 0 Z" /><path
               id="path428"
               style=""
               d="M 6.890252651,0 V -1.138842733 H 7.9042907 V 0 Z" /><path
               id="path430"
               style=""
               d="M 13.45550216,-1.658862245 V 0 H 12.57146898 V -1.658862245 H 9.11853942 v -0.728027318 l 3.35412586,-4.94018537 h 0.98283688 v 4.92978498 h 1.02963863 v 0.738427708 z m -0.88403318,-4.612573077 q -0.0104004,0.03120117 -0.14560546,0.275610341 -0.13520507,0.244409171 -0.20280761,0.343212879 l -1.87727044,2.766503807 -0.28081054,0.384814439 -0.08320312,0.104003903 h 2.589697169 z" /></g></g><g
           transform="matrix(0.74996805,0,0,0.74996805,37.582386,35.998466)"
           id="g298"><path
             id="path300"
             style="fill:#000000;fill-opacity:0;fill-rule:nonzero;stroke:none"
             d="m 0.5,0.5 h 97 v 21 h -97 z" /><path
             id="path302"
             style="fill:none;stroke:#000000;stroke-width:1;stroke-linecap:butt;stroke-linejoin:miter;stroke-miterlimit:10;stroke-dasharray:none;stroke-opacity:0"
             d="m 0.5,0.5 h 97 v 21 h -97 z" /></g><g
           transform="matrix(0.7511313,0,0,0.7511313,37.582386,35.998466)"
           id="g304"><g
             id="text308"
             style="font-variant:normal;font-weight:normal;font-size:11.9799995422px;font-family:Arimo;-inkscape-font-specification:Arimo;writing-mode:lr-tb;fill:#000000;fill-opacity:1;fill-rule:nonzero;stroke:none"
             transform="translate(2.0228369,15.0079727)"
             aria-label="IrO "><path
               id="path433"
               style=""
               d="M 1.10557613,0 V -8.242099294 H 2.222851478 V 0 Z" /><path
               id="path435"
               style=""
               d="m 4.155946624,0 v -4.855175596 q 0,-0.666855443 -0.03509766,-1.474101506 h 0.994433555 q 0.04679687,1.076328084 0.04679687,1.292763623 h 0.02339844 q 0.251533194,-0.813095672 0.579111306,-1.111425739 0.327578113,-0.298330067 0.924238246,-0.298330067 0.21058593,0 0.427021468,0.05849609 v 0.96518551 q -0.210585929,-0.05849609 -0.561562478,-0.05849609 -0.655156225,0 -1.000283165,0.567412088 -0.34512694,0.561562478 -0.34512694,1.614492126 V 0 Z" /><path
               id="path437"
               style=""
               d="m 16.05615506,-4.159072107 q 0,1.292763623 -0.49721678,2.263798742 -0.49136717,0.9710351191 -1.41560541,1.4916503335 -0.92423825,0.5206152145 -2.18190421,0.5206152145 -1.26936519,0 -2.193603436,-0.5147656053 -0.918388637,-0.5147656053 -1.403906197,-1.4858007247 -0.485517559,-0.976884728 -0.485517559,-2.27549796 0,-1.977167893 1.082177693,-3.088593632 1.082177689,-1.117275348 3.012548709,-1.117275348 1.25766597,0 2.18190422,0.503066387 0.92423824,0.497216778 1.4097558,1.45070307 0.49136717,0.953486292 0.49136717,2.252099523 z m -1.14067378,0 q 0,-1.538447207 -0.77214841,-2.415888579 -0.7662988,-0.877441373 -2.170205,-0.877441373 -1.41560541,0 -2.187753819,0.865742154 -0.772148408,0.865742155 -0.772148408,2.427587798 0,1.550146425 0.777998017,2.462685453 0.78384763,0.9066894185 2.170205,0.9066894185 1.42730463,0 2.18775382,-0.8774413725 0.7662988,-0.883290982 0.7662988,-2.491933499 z" /></g><g
             id="text312"
             style="font-variant:normal;font-weight:normal;font-size:8.3800001144px;font-family:Arimo;-inkscape-font-specification:Arimo;writing-mode:lr-tb;fill:#000000;fill-opacity:1;fill-rule:nonzero;stroke:none"
             transform="translate(18.643505,17.524071)"
             aria-label="3"><path
               id="path440"
               style=""
               d="m 4.29229498,-1.591709006 q 0,0.7979004014 -0.507382819,1.235722673 -0.507382819,0.4378222716 -1.448496113,0.4378222716 -0.875644544,0 -1.3993945508,-0.3928125053 Q 0.4173632869,-0.707880869 0.3191601606,-1.481230489 L 1.08023439,-1.550791037 q 0.147304689,1.0229492329 1.256181658,1.0229492329 0.556484382,0 0.871552746,-0.2741503944 0.31916016,-0.2741503945 0.31916016,-0.8142675895 0,-0.470556647 -0.364169926,-0.73243165 Q 2.802880898,-2.614658239 2.11955081,-2.614658239 H 1.702187523 V -3.25297856 h 0.400996099 q 0.605585946,0 0.937021498,-0.261875004 0.335527348,-0.2659668 0.335527348,-0.73243165 0,-0.462373053 -0.274150394,-0.728339854 -0.270058598,-0.270058597 -0.806083996,-0.270058597 -0.486923835,0 -0.789716807,0.249599612 -0.298701176,0.249599613 -0.34780274,0.703789073 l -0.7406152441,-0.05728516 q 0.081835939,-0.707880869 0.5851269611,-1.104785171 0.507382819,-0.396904302 1.301191424,-0.396904302 0.867460949,0 1.34620119,0.405087896 0.482832038,0.400996099 0.482832038,1.121152359 0,0.552392586 -0.310976567,0.900195325 -0.306884769,0.343710942 -0.896103527,0.46646485 v 0.01636719 q 0.646503915,0.06956055 1.006582045,0.433730474 0.360078129,0.364169927 0.360078129,0.916562513 z" /></g><g
             id="text316"
             style="font-variant:normal;font-weight:normal;font-size:11.9799995422px;font-family:Arimo;-inkscape-font-specification:Arimo;writing-mode:lr-tb;fill:#000000;fill-opacity:1;fill-rule:nonzero;stroke:none"
             transform="translate(26.6265831,15.0079727)"
             aria-label="(@1mA/cm "><path
               id="path443"
               style=""
               d="m 0.7429003622,-3.111992069 q 0,-1.690537044 0.5264648238,-3.035947149 0.532314433,-1.345410105 1.632040953,-2.532880763 h 1.017831992 q -1.093876911,1.216718704 -1.608642516,2.585527245 -0.508915996,1.368808542 -0.508915996,2.994999886 0,1.620341735 0.503066387,2.983300667 0.508915996,1.362958932 1.614492125,2.597226463 H 2.901406139 Q 1.79583001,1.286914013 1.269365186,-0.0584960915 0.7429003622,-1.409755806 0.7429003622,-3.088593632 Z" /><path
               id="path445"
               style=""
               d="m 15.11164386,-4.416454909 q 0,1.088027302 -0.33927733,1.971318284 -0.33342772,0.877441372 -0.93593746,1.357109323 -0.59666014,0.4796679502 -1.3395605,0.4796679502 -0.5791113,0 -0.8949902,-0.2573828026 -0.31587889,-0.2573828026 -0.31587889,-0.7721484076 l 0.0175488,-0.409472641 h -0.0350976 q -0.3860742,0.719501926 -0.9593359,1.082177693 -0.567412089,0.3568261582 -1.228417923,0.3568261582 -0.918388637,0 -1.427304633,-0.5966601332 -0.503066387,-0.596660134 -0.503066387,-1.65543939 0,-0.959335901 0.374374986,-1.784130791 0.380224594,-0.824794891 1.058779256,-1.31031245 0.678554661,-0.48551756 1.503349551,-0.48551756 1.28106441,0 1.76073236,1.064628866 h 0.0350976 l 0.22813476,-0.935937464 h 0.91253902 l -0.67855466,2.95990223 q -0.21643554,0.959335901 -0.21643554,1.479951116 0,0.54986326 0.47381835,0.54986326 0.46796873,0 0.85989254,-0.403623032 0.39777342,-0.403623031 0.62590818,-1.111425738 0.22813476,-0.707802708 0.22813476,-1.567695253 0,-1.047080038 -0.45041991,-1.854326101 -0.4504199,-0.813095672 -1.29861323,-1.245966749 -0.84819333,-0.438720687 -1.9830175,-0.438720687 -1.415605416,0 -2.503632718,0.625908179 -1.088027302,0.62590818 -1.708085872,1.807529228 -0.62005857,1.17577144 -0.62005857,2.638173728 0,1.128974566 0.456269513,1.9947167203 0.462119123,0.8598925452 1.327861278,1.3220116682 0.871591763,0.462119123 2.029814375,0.462119123 0.848193324,0 1.719785094,-0.2222851478 0.87159176,-0.2164355386 1.80752922,-0.7253515348 l 0.32172851,0.655156225 Q 12.56706388,1.123124957 11.57263033,1.386357369 10.58404638,1.65543939 9.566214386,1.65543939 q -1.409755805,0 -2.468535062,-0.561562479 Q 6.044749677,0.5381640419 5.483187199,-0.4913671687 4.927474329,-1.526747989 4.927474329,-2.872158093 q 0,-1.637890563 0.725351535,-2.977451058 0.731201144,-1.339560496 2.023964766,-2.082460858 1.292763623,-0.748749972 2.89555653,-0.748749972 1.40975581,0 2.43343741,0.532314433 1.0236816,0.526464824 1.56184564,1.491650334 0.54401365,0.96518551 0.54401365,2.240400305 z m -3.54486314,0.04679687 q 0,-0.596660134 -0.38607421,-0.959335901 -0.3860742,-0.368525377 -1.02953121,-0.368525377 -0.590810523,0 -1.052929646,0.374374986 -0.456269514,0.368525377 -0.719501925,1.029531211 -0.263232412,0.655156225 -0.263232412,1.421455024 0,0.701953098 0.27493163,1.09972652 0.280781239,0.397773422 0.859892545,0.397773422 0.731201144,0 1.339560498,-0.614208961 0.60835935,-0.61420896 0.84234372,-1.532597597 0.13454101,-0.538164042 0.13454101,-0.848193327 z" /><path
               id="path447"
               style=""
               d="m 17.04814389,0 v -0.8949902002 h 2.10000968 V -7.23596652 l -1.86017571,1.327861277 v -0.994433556 l 1.94791985,-1.339560495 h 0.97103512 v 7.3471090938 h 2.00641594 V 0 Z" /><path
               id="path449"
               style=""
               d="m 27.28455305,0 v -4.012831878 q 0,-0.918388637 -0.25153319,-1.269365186 -0.2515332,-0.350976549 -0.90668942,-0.350976549 -0.67270505,0 -1.06462887,0.514765605 -0.39192381,0.514765606 -0.39192381,1.45070307 V 0 h -1.04708004 v -4.978017388 q 0,-1.10557613 -0.0350977,-1.351259714 h 0.99443355 q 0.00585,0.02924805 0.0116992,0.157939447 0.00585,0.128691402 0.0116992,0.298330067 0.0116992,0.163789056 0.0233984,0.625908179 h 0.0175488 q 0.33927733,-0.672705052 0.77799802,-0.935937464 0.43872069,-0.263232412 1.07047848,-0.263232412 0.71950192,0 1.13482417,0.286630848 0.42117186,0.286630849 0.58496092,0.912539028 h 0.0175488 q 0.32757812,-0.637607397 0.78969724,-0.918388637 0.46796873,-0.280781239 1.12897457,-0.280781239 0.9593359,0 1.39220697,0.520615215 0.43872069,0.520615214 0.43872069,1.708085872 V 0 h -1.04123043 v -4.012831878 q 0,-0.918388637 -0.25153319,-1.269365186 -0.2515332,-0.350976549 -0.90668942,-0.350976549 -0.69025388,0 -1.07632809,0.514765605 -0.38022459,0.508915997 -0.38022459,1.45070307 V 0 Z" /><path
               id="path451"
               style=""
               d="M 39.58860936,0 38.64682228,-2.41003897 H 34.89137321 L 33.94373653,0 h -1.15822261 l 3.36352526,-8.242099294 h 1.26936518 L 40.72928314,0 Z m -2.81951161,-7.399755577 -0.0526465,0.163789057 q -0.14624022,0.485517559 -0.43287107,1.245966749 l -1.05292965,2.708369037 h 3.08274402 l -1.05877925,-2.720068255 q -0.16378906,-0.403623032 -0.32757812,-0.912539028 z" /><path
               id="path453"
               style=""
               d="m 40.74517822,0.116992183 2.40418936,-8.797812164 h 0.92423825 l -2.38079092,8.797812164 z" /><path
               id="path455"
               style=""
               d="m 45.67912286,-3.193886597 q 0,1.263515577 0.39777343,1.871874929 0.39777342,0.6083593515 1.19916987,0.6083593515 0.56156248,0 0.93593747,-0.3041796755 0.38022459,-0.304179676 0.46796873,-0.935937465 l 1.06462886,0.07019531 q -0.12284179,0.9125390279 -0.77799801,1.4565526789 -0.65515623,0.5440136511 -1.661289,0.5440136511 -1.32786128,0 -2.02981438,-0.8364941086 -0.69610349,-0.8423437174 -0.69610349,-2.4509862344 0,-1.596943298 0.7019531,-2.433437407 0.7019531,-0.842343718 2.01226555,-0.842343718 0.97103512,0 1.60864252,0.503066387 0.643457,0.503066387 0.80724606,1.386357369 l -1.08217769,0.08189453 q -0.0818945,-0.526464824 -0.41532225,-0.836494109 -0.33342773,-0.310029285 -0.94763669,-0.310029285 -0.83649411,0 -1.21086909,0.55571287 -0.37437499,0.555712869 -0.37437499,1.871874928 z" /><path
               id="path457"
               style=""
               d="m 54.54735518,0 v -4.012831878 q 0,-0.918388637 -0.2515332,-1.269365186 -0.25153319,-0.350976549 -0.90668942,-0.350976549 -0.67270505,0 -1.06462886,0.514765605 -0.39192382,0.514765606 -0.39192382,1.45070307 V 0 h -1.04708003 v -4.978017388 q 0,-1.10557613 -0.0350977,-1.351259714 h 0.99443356 q 0.00585,0.02924805 0.0116992,0.157939447 0.00585,0.128691402 0.0116992,0.298330067 0.0116992,0.163789056 0.0233984,0.625908179 h 0.0175488 q 0.33927733,-0.672705052 0.77799801,-0.935937464 0.43872069,-0.263232412 1.07047848,-0.263232412 0.71950193,0 1.13482417,0.286630848 0.42117186,0.286630849 0.58496092,0.912539028 h 0.0175488 q 0.32757811,-0.637607397 0.78969723,-0.918388637 0.46796874,-0.280781239 1.12897457,-0.280781239 0.9593359,0 1.39220698,0.520615215 0.43872068,0.520615214 0.43872068,1.708085872 V 0 h -1.04123043 v -4.012831878 q 0,-0.918388637 -0.25153319,-1.269365186 -0.25153319,-0.350976549 -0.90668942,-0.350976549 -0.69025388,0 -1.07632808,0.514765605 -0.3802246,0.508915997 -0.3802246,1.45070307 V 0 Z" /></g><g
             id="text320"
             style="font-variant:normal;font-weight:normal;font-size:8.3800001144px;font-family:Arimo;-inkscape-font-specification:Arimo;writing-mode:lr-tb;fill:#000000;fill-opacity:1;fill-rule:nonzero;stroke:none"
             transform="translate(86.651505,9.9757776)"
             aria-label="2"><path
               id="path460"
               style=""
               d="M 0.4214550839,0 V -0.5196582102 Q 0.6301367274,-0.9983984511 0.9288379033,-1.362568378 1.231630876,-1.730830102 1.563066428,-2.025439481 q 0.331435551,-0.298701176 0.654687509,-0.552392585 0.327343754,-0.25369141 0.589218758,-0.50738282 0.261875003,-0.25369141 0.421455083,-0.531933601 0.163671878,-0.278242191 0.163671878,-0.630136727 0,-0.474648444 -0.278242192,-0.736523448 -0.278242191,-0.261875003 -0.77334962,-0.261875003 -0.470556647,0 -0.777441416,0.257783206 -0.302792973,0.25369141 -0.355986333,0.716064463 l -0.7528906357,-0.06956055 q 0.081835939,-0.691513681 0.5851269607,-1.100693374 0.50738282,-0.409179693 1.301191424,-0.409179693 0.871552747,0 1.338017597,0.41327149 0.470556647,0.409179693 0.470556647,1.166162125 0,0.335527348 -0.155488283,0.6669629 -0.151396487,0.331435551 -0.45418946,0.662871103 -0.302792973,0.331435551 -1.157978531,1.027041029 -0.470556647,0.384628912 -0.748798839,0.695605479 -0.278242191,0.3068847694 -0.400996099,0.5933105546 H 4.23910162 V 0 Z" /></g><g
             id="text324"
             style="font-variant:normal;font-weight:normal;font-size:11.9799995422px;font-family:Arimo;-inkscape-font-specification:Arimo;writing-mode:lr-tb;fill:#000000;fill-opacity:1;fill-rule:nonzero;stroke:none"
             transform="translate(91.30928,15.0079727)"
             aria-label=")"><path
               id="path463"
               style=""
               d="m 3.246533079,-3.088593632 q 0,1.690537045 -0.532314433,3.0359471496 Q 2.187753823,1.292763622 1.088027302,2.48023428 H 0.0701953098 Q 1.16992183,1.251816358 1.678837826,-0.1052929647 2.187753823,-1.468251897 2.187753823,-3.10029285 q 0,-1.632040954 -0.514765606,-2.994999886 Q 1.164072221,-7.458251668 0.0701953098,-8.680819981 H 1.088027302 q 1.10557613,1.193320267 1.632040953,2.544579981 0.526464824,1.345410105 0.526464824,3.024247931 z" /></g></g><g
           transform="matrix(0.74996805,0,0,0.74996805,37.582386,131.244415)"
           id="g326"><path
             id="path328"
             style="fill:#000000;fill-opacity:0;fill-rule:nonzero;stroke:none"
             d="m 0.5,0.5 h 97 v 21 h -97 z" /><path
             id="path330"
             style="fill:none;stroke:#000000;stroke-width:1;stroke-linecap:butt;stroke-linejoin:miter;stroke-miterlimit:10;stroke-dasharray:none;stroke-opacity:0"
             d="m 0.5,0.5 h 97 v 21 h -97 z" /></g><g
           transform="matrix(0.7511313,0,0,0.7511313,37.582386,131.244415)"
           id="g332"><g
             id="text336"
             style="font-variant:normal;font-weight:normal;font-size:11.9799995422px;font-family:Arimo;-inkscape-font-specification:Arimo;writing-mode:lr-tb;fill:#000000;fill-opacity:1;fill-rule:nonzero;stroke:none"
             transform="translate(2.0228369,15.0079727)"
             aria-label="IrO "><path
               id="path466"
               style=""
               d="M 1.10557613,0 V -8.242099294 H 2.222851478 V 0 Z" /><path
               id="path468"
               style=""
               d="m 4.155946624,0 v -4.855175596 q 0,-0.666855443 -0.03509766,-1.474101506 h 0.994433555 q 0.04679687,1.076328084 0.04679687,1.292763623 h 0.02339844 q 0.251533194,-0.813095672 0.579111306,-1.111425739 0.327578113,-0.298330067 0.924238246,-0.298330067 0.21058593,0 0.427021468,0.05849609 v 0.96518551 q -0.210585929,-0.05849609 -0.561562478,-0.05849609 -0.655156225,0 -1.000283165,0.567412088 -0.34512694,0.561562478 -0.34512694,1.614492126 V 0 Z" /><path
               id="path470"
               style=""
               d="m 16.05615506,-4.159072107 q 0,1.292763623 -0.49721678,2.263798742 -0.49136717,0.9710351191 -1.41560541,1.4916503335 -0.92423825,0.5206152145 -2.18190421,0.5206152145 -1.26936519,0 -2.193603436,-0.5147656053 -0.918388637,-0.5147656053 -1.403906197,-1.4858007247 -0.485517559,-0.976884728 -0.485517559,-2.27549796 0,-1.977167893 1.082177693,-3.088593632 1.082177689,-1.117275348 3.012548709,-1.117275348 1.25766597,0 2.18190422,0.503066387 0.92423824,0.497216778 1.4097558,1.45070307 0.49136717,0.953486292 0.49136717,2.252099523 z m -1.14067378,0 q 0,-1.538447207 -0.77214841,-2.415888579 -0.7662988,-0.877441373 -2.170205,-0.877441373 -1.41560541,0 -2.187753819,0.865742154 -0.772148408,0.865742155 -0.772148408,2.427587798 0,1.550146425 0.777998017,2.462685453 0.78384763,0.9066894185 2.170205,0.9066894185 1.42730463,0 2.18775382,-0.8774413725 0.7662988,-0.883290982 0.7662988,-2.491933499 z" /></g><g
             id="text340"
             style="font-variant:normal;font-weight:normal;font-size:8.3800001144px;font-family:Arimo;-inkscape-font-specification:Arimo;writing-mode:lr-tb;fill:#000000;fill-opacity:1;fill-rule:nonzero;stroke:none"
             transform="translate(18.643505,17.524071)"
             aria-label="2"><path
               id="path473"
               style=""
               d="M 0.4214550839,0 V -0.5196582102 Q 0.6301367274,-0.9983984511 0.9288379033,-1.362568378 1.231630876,-1.730830102 1.563066428,-2.025439481 q 0.331435551,-0.298701176 0.654687509,-0.552392585 0.327343754,-0.25369141 0.589218758,-0.50738282 0.261875003,-0.25369141 0.421455083,-0.531933601 0.163671878,-0.278242191 0.163671878,-0.630136727 0,-0.474648444 -0.278242192,-0.736523448 -0.278242191,-0.261875003 -0.77334962,-0.261875003 -0.470556647,0 -0.777441416,0.257783206 -0.302792973,0.25369141 -0.355986333,0.716064463 l -0.7528906357,-0.06956055 q 0.081835939,-0.691513681 0.5851269607,-1.100693374 0.50738282,-0.409179693 1.301191424,-0.409179693 0.871552747,0 1.338017597,0.41327149 0.470556647,0.409179693 0.470556647,1.166162125 0,0.335527348 -0.155488283,0.6669629 -0.151396487,0.331435551 -0.45418946,0.662871103 -0.302792973,0.331435551 -1.157978531,1.027041029 -0.470556647,0.384628912 -0.748798839,0.695605479 -0.278242191,0.3068847694 -0.400996099,0.5933105546 H 4.23910162 V 0 Z" /></g><g
             id="text344"
             style="font-variant:normal;font-weight:normal;font-size:11.9799995422px;font-family:Arimo;-inkscape-font-specification:Arimo;writing-mode:lr-tb;fill:#000000;fill-opacity:1;fill-rule:nonzero;stroke:none"
             transform="translate(26.6265831,15.0079727)"
             aria-label="(@1mA/cm "><path
               id="path476"
               style=""
               d="m 0.7429003622,-3.111992069 q 0,-1.690537044 0.5264648238,-3.035947149 0.532314433,-1.345410105 1.632040953,-2.532880763 h 1.017831992 q -1.093876911,1.216718704 -1.608642516,2.585527245 -0.508915996,1.368808542 -0.508915996,2.994999886 0,1.620341735 0.503066387,2.983300667 0.508915996,1.362958932 1.614492125,2.597226463 H 2.901406139 Q 1.79583001,1.286914013 1.269365186,-0.0584960915 0.7429003622,-1.409755806 0.7429003622,-3.088593632 Z" /><path
               id="path478"
               style=""
               d="m 15.11164386,-4.416454909 q 0,1.088027302 -0.33927733,1.971318284 -0.33342772,0.877441372 -0.93593746,1.357109323 -0.59666014,0.4796679502 -1.3395605,0.4796679502 -0.5791113,0 -0.8949902,-0.2573828026 -0.31587889,-0.2573828026 -0.31587889,-0.7721484076 l 0.0175488,-0.409472641 h -0.0350976 q -0.3860742,0.719501926 -0.9593359,1.082177693 -0.567412089,0.3568261582 -1.228417923,0.3568261582 -0.918388637,0 -1.427304633,-0.5966601332 -0.503066387,-0.596660134 -0.503066387,-1.65543939 0,-0.959335901 0.374374986,-1.784130791 0.380224594,-0.824794891 1.058779256,-1.31031245 0.678554661,-0.48551756 1.503349551,-0.48551756 1.28106441,0 1.76073236,1.064628866 h 0.0350976 l 0.22813476,-0.935937464 h 0.91253902 l -0.67855466,2.95990223 q -0.21643554,0.959335901 -0.21643554,1.479951116 0,0.54986326 0.47381835,0.54986326 0.46796873,0 0.85989254,-0.403623032 0.39777342,-0.403623031 0.62590818,-1.111425738 0.22813476,-0.707802708 0.22813476,-1.567695253 0,-1.047080038 -0.45041991,-1.854326101 -0.4504199,-0.813095672 -1.29861323,-1.245966749 -0.84819333,-0.438720687 -1.9830175,-0.438720687 -1.415605416,0 -2.503632718,0.625908179 -1.088027302,0.62590818 -1.708085872,1.807529228 -0.62005857,1.17577144 -0.62005857,2.638173728 0,1.128974566 0.456269513,1.9947167203 0.462119123,0.8598925452 1.327861278,1.3220116682 0.871591763,0.462119123 2.029814375,0.462119123 0.848193324,0 1.719785094,-0.2222851478 0.87159176,-0.2164355386 1.80752922,-0.7253515348 l 0.32172851,0.655156225 Q 12.56706388,1.123124957 11.57263033,1.386357369 10.58404638,1.65543939 9.566214386,1.65543939 q -1.409755805,0 -2.468535062,-0.561562479 Q 6.044749677,0.5381640419 5.483187199,-0.4913671687 4.927474329,-1.526747989 4.927474329,-2.872158093 q 0,-1.637890563 0.725351535,-2.977451058 0.731201144,-1.339560496 2.023964766,-2.082460858 1.292763623,-0.748749972 2.89555653,-0.748749972 1.40975581,0 2.43343741,0.532314433 1.0236816,0.526464824 1.56184564,1.491650334 0.54401365,0.96518551 0.54401365,2.240400305 z m -3.54486314,0.04679687 q 0,-0.596660134 -0.38607421,-0.959335901 -0.3860742,-0.368525377 -1.02953121,-0.368525377 -0.590810523,0 -1.052929646,0.374374986 -0.456269514,0.368525377 -0.719501925,1.029531211 -0.263232412,0.655156225 -0.263232412,1.421455024 0,0.701953098 0.27493163,1.09972652 0.280781239,0.397773422 0.859892545,0.397773422 0.731201144,0 1.339560498,-0.614208961 0.60835935,-0.61420896 0.84234372,-1.532597597 0.13454101,-0.538164042 0.13454101,-0.848193327 z" /><path
               id="path480"
               style=""
               d="m 17.04814389,0 v -0.8949902002 h 2.10000968 V -7.23596652 l -1.86017571,1.327861277 v -0.994433556 l 1.94791985,-1.339560495 h 0.97103512 v 7.3471090938 h 2.00641594 V 0 Z" /><path
               id="path482"
               style=""
               d="m 27.28455305,0 v -4.012831878 q 0,-0.918388637 -0.25153319,-1.269365186 -0.2515332,-0.350976549 -0.90668942,-0.350976549 -0.67270505,0 -1.06462887,0.514765605 -0.39192381,0.514765606 -0.39192381,1.45070307 V 0 h -1.04708004 v -4.978017388 q 0,-1.10557613 -0.0350977,-1.351259714 h 0.99443355 q 0.00585,0.02924805 0.0116992,0.157939447 0.00585,0.128691402 0.0116992,0.298330067 0.0116992,0.163789056 0.0233984,0.625908179 h 0.0175488 q 0.33927733,-0.672705052 0.77799802,-0.935937464 0.43872069,-0.263232412 1.07047848,-0.263232412 0.71950192,0 1.13482417,0.286630848 0.42117186,0.286630849 0.58496092,0.912539028 h 0.0175488 q 0.32757812,-0.637607397 0.78969724,-0.918388637 0.46796873,-0.280781239 1.12897457,-0.280781239 0.9593359,0 1.39220697,0.520615215 0.43872069,0.520615214 0.43872069,1.708085872 V 0 h -1.04123043 v -4.012831878 q 0,-0.918388637 -0.25153319,-1.269365186 -0.2515332,-0.350976549 -0.90668942,-0.350976549 -0.69025388,0 -1.07632809,0.514765605 -0.38022459,0.508915997 -0.38022459,1.45070307 V 0 Z" /><path
               id="path484"
               style=""
               d="M 39.58860936,0 38.64682228,-2.41003897 H 34.89137321 L 33.94373653,0 h -1.15822261 l 3.36352526,-8.242099294 h 1.26936518 L 40.72928314,0 Z m -2.81951161,-7.399755577 -0.0526465,0.163789057 q -0.14624022,0.485517559 -0.43287107,1.245966749 l -1.05292965,2.708369037 h 3.08274402 l -1.05877925,-2.720068255 q -0.16378906,-0.403623032 -0.32757812,-0.912539028 z" /><path
               id="path486"
               style=""
               d="m 40.74517822,0.116992183 2.40418936,-8.797812164 h 0.92423825 l -2.38079092,8.797812164 z" /><path
               id="path488"
               style=""
               d="m 45.67912286,-3.193886597 q 0,1.263515577 0.39777343,1.871874929 0.39777342,0.6083593515 1.19916987,0.6083593515 0.56156248,0 0.93593747,-0.3041796755 0.38022459,-0.304179676 0.46796873,-0.935937465 l 1.06462886,0.07019531 q -0.12284179,0.9125390279 -0.77799801,1.4565526789 -0.65515623,0.5440136511 -1.661289,0.5440136511 -1.32786128,0 -2.02981438,-0.8364941086 -0.69610349,-0.8423437174 -0.69610349,-2.4509862344 0,-1.596943298 0.7019531,-2.433437407 0.7019531,-0.842343718 2.01226555,-0.842343718 0.97103512,0 1.60864252,0.503066387 0.643457,0.503066387 0.80724606,1.386357369 l -1.08217769,0.08189453 q -0.0818945,-0.526464824 -0.41532225,-0.836494109 -0.33342773,-0.310029285 -0.94763669,-0.310029285 -0.83649411,0 -1.21086909,0.55571287 -0.37437499,0.555712869 -0.37437499,1.871874928 z" /><path
               id="path490"
               style=""
               d="m 54.54735518,0 v -4.012831878 q 0,-0.918388637 -0.2515332,-1.269365186 -0.25153319,-0.350976549 -0.90668942,-0.350976549 -0.67270505,0 -1.06462886,0.514765605 -0.39192382,0.514765606 -0.39192382,1.45070307 V 0 h -1.04708003 v -4.978017388 q 0,-1.10557613 -0.0350977,-1.351259714 h 0.99443356 q 0.00585,0.02924805 0.0116992,0.157939447 0.00585,0.128691402 0.0116992,0.298330067 0.0116992,0.163789056 0.0233984,0.625908179 h 0.0175488 q 0.33927733,-0.672705052 0.77799801,-0.935937464 0.43872069,-0.263232412 1.07047848,-0.263232412 0.71950193,0 1.13482417,0.286630848 0.42117186,0.286630849 0.58496092,0.912539028 h 0.0175488 q 0.32757811,-0.637607397 0.78969723,-0.918388637 0.46796874,-0.280781239 1.12897457,-0.280781239 0.9593359,0 1.39220698,0.520615215 0.43872068,0.520615214 0.43872068,1.708085872 V 0 h -1.04123043 v -4.012831878 q 0,-0.918388637 -0.25153319,-1.269365186 -0.25153319,-0.350976549 -0.90668942,-0.350976549 -0.69025388,0 -1.07632808,0.514765605 -0.3802246,0.508915997 -0.3802246,1.45070307 V 0 Z" /></g><g
             id="text348"
             style="font-variant:normal;font-weight:normal;font-size:8.3800001144px;font-family:Arimo;-inkscape-font-specification:Arimo;writing-mode:lr-tb;fill:#000000;fill-opacity:1;fill-rule:nonzero;stroke:none"
             transform="translate(86.651505,9.9757776)"
             aria-label="2"><path
               id="path493"
               style=""
               d="M 0.4214550839,0 V -0.5196582102 Q 0.6301367274,-0.9983984511 0.9288379033,-1.362568378 1.231630876,-1.730830102 1.563066428,-2.025439481 q 0.331435551,-0.298701176 0.654687509,-0.552392585 0.327343754,-0.25369141 0.589218758,-0.50738282 0.261875003,-0.25369141 0.421455083,-0.531933601 0.163671878,-0.278242191 0.163671878,-0.630136727 0,-0.474648444 -0.278242192,-0.736523448 -0.278242191,-0.261875003 -0.77334962,-0.261875003 -0.470556647,0 -0.777441416,0.257783206 -0.302792973,0.25369141 -0.355986333,0.716064463 l -0.7528906357,-0.06956055 q 0.081835939,-0.691513681 0.5851269607,-1.100693374 0.50738282,-0.409179693 1.301191424,-0.409179693 0.871552747,0 1.338017597,0.41327149 0.470556647,0.409179693 0.470556647,1.166162125 0,0.335527348 -0.155488283,0.6669629 -0.151396487,0.331435551 -0.45418946,0.662871103 -0.302792973,0.331435551 -1.157978531,1.027041029 -0.470556647,0.384628912 -0.748798839,0.695605479 -0.278242191,0.3068847694 -0.400996099,0.5933105546 H 4.23910162 V 0 Z" /></g><g
             id="text352"
             style="font-variant:normal;font-weight:normal;font-size:11.9799995422px;font-family:Arimo;-inkscape-font-specification:Arimo;writing-mode:lr-tb;fill:#000000;fill-opacity:1;fill-rule:nonzero;stroke:none"
             transform="translate(91.30928,15.0079727)"
             aria-label=")"><path
               id="path496"
               style=""
               d="m 3.246533079,-3.088593632 q 0,1.690537045 -0.532314433,3.0359471496 Q 2.187753823,1.292763622 1.088027302,2.48023428 H 0.0701953098 Q 1.16992183,1.251816358 1.678837826,-0.1052929647 2.187753823,-1.468251897 2.187753823,-3.10029285 q 0,-1.632040954 -0.514765606,-2.994999886 Q 1.164072221,-7.458251668 0.0701953098,-8.680819981 H 1.088027302 q 1.10557613,1.193320267 1.632040953,2.544579981 0.526464824,1.345410105 0.526464824,3.024247931 z" /></g></g></g></g></g></svg>